<svg width="64" height="57" viewBox="0 0 64 57" fill="none" xmlns="http://www.w3.org/2000/svg">
<g clip-path="url(#clip0_194_17)">
<rect width="64" height="51" rx="5" fill="#041B3F"/>
<path d="M5.222 33.352C4.89933 33.352 4.628 33.242 4.408 33.022C4.20267 32.8167 4.1 32.5527 4.1 32.23C4.1 31.9073 4.21 31.6433 4.43 31.438C4.65 31.2327 4.914 31.13 5.222 31.13C5.53 31.13 5.78667 31.24 5.992 31.46C6.212 31.6653 6.322 31.922 6.322 32.23C6.322 32.538 6.212 32.802 5.992 33.022C5.78667 33.242 5.53 33.352 5.222 33.352ZM14.2898 33.132C13.1458 33.132 12.1191 32.8607 11.2098 32.318C10.3151 31.7753 9.60378 31.042 9.07578 30.118C8.56245 29.194 8.30578 28.1527 8.30578 26.994C8.30578 25.8207 8.54778 24.772 9.03178 23.848C9.51578 22.924 10.1831 22.198 11.0338 21.67C11.8844 21.1273 12.8598 20.856 13.9598 20.856C14.8984 20.856 15.7564 21.0393 16.5338 21.406C17.3111 21.758 17.9858 22.3007 18.5578 23.034C18.6751 23.1807 18.7191 23.3347 18.6898 23.496C18.6604 23.6573 18.5651 23.7893 18.4038 23.892C18.2718 23.9947 18.1251 24.0387 17.9638 24.024C17.8024 23.9947 17.6631 23.9067 17.5458 23.76C16.6071 22.6453 15.4118 22.088 13.9598 22.088C13.0944 22.088 12.3318 22.3007 11.6718 22.726C11.0264 23.1513 10.5204 23.7307 10.1538 24.464C9.80178 25.1973 9.62578 26.0407 9.62578 26.994C9.62578 27.918 9.82378 28.754 10.2198 29.502C10.6158 30.2353 11.1584 30.822 11.8478 31.262C12.5518 31.6873 13.3658 31.9 14.2898 31.9C14.8911 31.9 15.4558 31.812 15.9838 31.636C16.5264 31.46 16.9958 31.1887 17.3918 30.822C17.5238 30.7047 17.6704 30.6387 17.8318 30.624C17.9931 30.6093 18.1324 30.6607 18.2498 30.778C18.3964 30.91 18.4698 31.064 18.4698 31.24C18.4844 31.4013 18.4258 31.5407 18.2938 31.658C17.2231 32.6407 15.8884 33.132 14.2898 33.132ZM27.7048 33.132C26.5608 33.132 25.5268 32.868 24.6028 32.34C23.6788 31.812 22.9455 31.0933 22.4028 30.184C21.8748 29.2747 21.5961 28.248 21.5668 27.104V16.478C21.5668 16.2727 21.6255 16.1113 21.7428 15.994C21.8748 15.8767 22.0361 15.818 22.2268 15.818C22.4321 15.818 22.5935 15.8767 22.7108 15.994C22.8281 16.1113 22.8868 16.2727 22.8868 16.478V23.342C23.3561 22.5793 24.0088 21.9707 24.8448 21.516C25.6955 21.0613 26.6488 20.834 27.7048 20.834C28.8781 20.834 29.9268 21.1053 30.8508 21.648C31.7895 22.176 32.5228 22.902 33.0508 23.826C33.5935 24.75 33.8648 25.7987 33.8648 26.972C33.8648 28.1453 33.5935 29.2013 33.0508 30.14C32.5228 31.064 31.7895 31.7973 30.8508 32.34C29.9268 32.868 28.8781 33.132 27.7048 33.132ZM27.7048 31.9C28.6288 31.9 29.4501 31.6873 30.1688 31.262C30.9021 30.822 31.4815 30.2353 31.9068 29.502C32.3321 28.754 32.5448 27.9107 32.5448 26.972C32.5448 26.0333 32.3321 25.1973 31.9068 24.464C31.4815 23.7307 30.9021 23.1513 30.1688 22.726C29.4501 22.286 28.6288 22.066 27.7048 22.066C26.7955 22.066 25.9741 22.286 25.2408 22.726C24.5075 23.1513 23.9281 23.7307 23.5028 24.464C23.0921 25.1973 22.8868 26.0333 22.8868 26.972C22.8868 27.9107 23.0921 28.754 23.5028 29.502C23.9281 30.2353 24.5075 30.822 25.2408 31.262C25.9741 31.6873 26.7955 31.9 27.7048 31.9ZM41.6525 33C40.8458 32.9853 40.1271 32.802 39.4965 32.45C38.8658 32.0833 38.3745 31.5847 38.0225 30.954C37.6705 30.3087 37.4945 29.5827 37.4945 28.776V17.82C37.4945 17.6147 37.5531 17.4533 37.6705 17.336C37.8025 17.204 37.9638 17.138 38.1545 17.138C38.3598 17.138 38.5211 17.204 38.6385 17.336C38.7705 17.4533 38.8365 17.6147 38.8365 17.82V28.776C38.8365 29.6267 39.1005 30.3233 39.6285 30.866C40.1565 31.394 40.8385 31.658 41.6745 31.658H42.1585C42.3638 31.658 42.5251 31.724 42.6425 31.856C42.7745 31.9733 42.8405 32.1347 42.8405 32.34C42.8405 32.5307 42.7745 32.692 42.6425 32.824C42.5251 32.9413 42.3638 33 42.1585 33H41.6525ZM35.7785 22.594C35.6025 22.594 35.4558 22.5427 35.3385 22.44C35.2358 22.3227 35.1845 22.176 35.1845 22C35.1845 21.824 35.2358 21.6847 35.3385 21.582C35.4558 21.4647 35.6025 21.406 35.7785 21.406H41.7405C41.9165 21.406 42.0558 21.4647 42.1585 21.582C42.2758 21.6847 42.3345 21.824 42.3345 22C42.3345 22.176 42.2758 22.3227 42.1585 22.44C42.0558 22.5427 41.9165 22.594 41.7405 22.594H35.7785Z" fill="white"/>
<path d="M49.168 33.296C49.04 33.296 48.888 33.264 48.712 33.2C47.8 32.88 47.056 32.424 46.48 31.832C45.92 31.24 45.512 30.552 45.256 29.768C45 28.984 44.872 28.168 44.872 27.32C44.872 26.344 45.016 25.368 45.304 24.392C45.608 23.416 46.016 22.52 46.528 21.704C47.056 20.888 47.664 20.216 48.352 19.688C49.04 19.16 49.776 18.856 50.56 18.776H50.704C50.928 18.776 51.04 18.816 51.04 18.896C51.04 18.96 50.888 19.04 50.584 19.136C50.2 19.248 49.752 19.584 49.24 20.144C48.744 20.688 48.256 21.4 47.776 22.28C47.312 23.144 46.92 24.12 46.6 25.208C46.296 26.28 46.144 27.4 46.144 28.568C46.144 29.288 46.232 29.96 46.408 30.584C46.6 31.192 46.896 31.688 47.296 32.072C47.712 32.456 48.256 32.68 48.928 32.744C49.28 32.776 49.456 32.896 49.456 33.104C49.456 33.232 49.36 33.296 49.168 33.296ZM54.4116 33.512C54.1876 33.512 54.0756 33.48 54.0756 33.416C54.0756 33.32 54.2276 33.232 54.5316 33.152C54.9156 33.04 55.3556 32.704 55.8516 32.144C56.3636 31.6 56.8516 30.896 57.3156 30.032C57.7956 29.152 58.1876 28.176 58.4916 27.104C58.8116 26.016 58.9716 24.888 58.9716 23.72C58.9716 23 58.8756 22.336 58.6836 21.728C58.5076 21.104 58.2196 20.6 57.8196 20.216C57.4196 19.816 56.8756 19.592 56.1876 19.544C55.8196 19.512 55.6356 19.392 55.6356 19.184C55.6356 19.056 55.7396 18.992 55.9476 18.992C56.0756 18.992 56.2276 19.024 56.4036 19.088C57.3156 19.392 58.0516 19.848 58.6116 20.456C59.1876 21.064 59.6036 21.76 59.8596 22.544C60.1156 23.312 60.2436 24.12 60.2436 24.968C60.2436 25.944 60.0916 26.92 59.7876 27.896C59.4996 28.872 59.0916 29.768 58.5636 30.584C58.0516 31.4 57.4516 32.072 56.7636 32.6C56.0756 33.128 55.3396 33.432 54.5556 33.512H54.4116Z" fill="white"/>
<rect x="0.75" y="54.75" width="62.5" height="1.5" rx="0.75" fill="#041B3F" stroke="#041B3F" stroke-width="1.5"/>
</g>
<defs>
<clipPath id="clip0_194_17">
<rect width="64" height="57" fill="white"/>
</clipPath>
</defs>
</svg>
