<svg width="100" height="100" viewBox="0 0 100 100" fill="none" xmlns="http://www.w3.org/2000/svg">
<path d="M96 0H4C1.7875 0 0 1.7875 0 4V96C0 98.2125 1.7875 100 4 100H96C98.2125 100 100 98.2125 100 96V4C100 1.7875 98.2125 0 96 0ZM50.1375 50.7625L26.1375 70.8875C25.4875 71.4375 24.5 70.975 24.5 70.125V62.2875C24.5 62 24.6375 61.7125 24.8625 61.525L38.5875 50L24.8625 38.475C24.7476 38.3843 24.6551 38.2683 24.5923 38.136C24.5294 38.0038 24.4978 37.8589 24.5 37.7125V29.875C24.5 29.025 25.4875 28.5625 26.1375 29.1125L50.1375 49.225C50.625 49.625 50.625 50.3625 50.1375 50.7625ZM75.5 70.125C75.5 70.675 75.075 71.125 74.5625 71.125H51.4375C50.925 71.125 50.5 70.675 50.5 70.125V64.125C50.5 63.575 50.925 63.125 51.4375 63.125H74.5625C75.075 63.125 75.5 63.575 75.5 64.125V70.125Z" fill="white"/>
</svg>
