<svg width="108" height="108" viewBox="0 0 108 108" fill="none" xmlns="http://www.w3.org/2000/svg">
<g filter="url(#filter0_d_171_34)">
<path d="M17.5897 100C12.9744 100 9.55556 99.0833 7.33333 97.25C5.11111 95.4166 4 92.6666 4 89C4 84.1666 6.09402 81.0833 10.2821 79.75C14.4701 78.4166 19.4274 77.75 25.1538 77.75H27.8462V70.75C27.8462 67.9166 27.8034 65.605 27.7179 63.815C27.6325 62.025 27.3761 60.545 26.9487 59.375C26.5214 58.205 26.0308 57.3933 25.4769 56.94C24.9231 56.4866 24.1744 56.2566 23.2308 56.25C22.4615 56.25 21.7556 56.375 21.1128 56.625C20.4701 56.875 19.9368 57.2083 19.5128 57.625C19.1709 58.0416 18.9573 58.4783 18.8718 58.935C18.7863 59.3916 18.8291 59.8716 19 60.375C19.5128 61.2916 20.1111 62.1866 20.7949 63.06C21.4786 63.9333 21.8205 64.955 21.8205 66.125C21.8205 68.2083 21.0735 69.9783 19.5795 71.435C18.0855 72.8916 16.2684 73.6217 14.1282 73.625C11.988 73.6283 10.1727 72.9 8.68205 71.44C7.19145 69.98 6.44273 68.2083 6.4359 66.125C6.4359 63.875 6.94872 62.0416 7.97436 60.625C9 59.2083 10.3897 58.0833 12.1436 57.25C13.8974 56.4166 15.9265 55.8333 18.2308 55.5C20.535 55.1667 23.0137 55 25.6667 55C32.9316 55 37.9744 56.2716 40.7949 58.815C43.6154 61.3583 45.0256 65.8367 45.0256 72.25V90.625C45.0256 92.2083 45.2188 93.375 45.6051 94.125C45.9915 94.875 46.653 95.25 47.5897 95.25C48.6154 95.25 49.4496 94.5 50.0923 93C50.735 91.5 51.1402 89.1666 51.3077 86H52.7179C52.4615 91.1666 51.4581 94.7916 49.7077 96.875C47.9573 98.9583 45.0291 100 40.9231 100C37.2479 100 34.3641 99.4383 32.2718 98.315C30.1795 97.1916 28.8325 95.5033 28.2308 93.25C27.3761 95.6666 26.1162 97.3966 24.4513 98.44C22.7863 99.4833 20.4991 100.003 17.5897 100ZM65.4103 100C63.7009 100 62.3128 99.3116 61.2462 97.935C60.1795 96.5583 59.9863 95.08 60.6667 93.5L73.7436 59.875C74.3419 58.4583 75.2821 57.2916 76.5641 56.375C77.8462 55.4583 79.2991 55 80.9231 55C82.547 55 84 55.4583 85.2821 56.375C86.5641 57.2916 87.5043 58.4583 88.1026 59.875L101.179 93.5C101.863 95.0833 101.672 96.5633 100.605 97.94C99.5385 99.3166 98.1487 100.003 96.4359 100C95.4103 100 94.4701 99.7083 93.6154 99.125C92.7607 98.5416 92.1197 97.75 91.6923 96.75L89.1282 89.5H72.7179L70.1538 96.75C69.812 97.6666 69.2137 98.4383 68.359 99.065C67.5043 99.6916 66.5214 100.003 65.4103 100ZM23.8718 96.375C24.9829 96.375 25.9231 95.52 26.6923 93.81C27.4615 92.1 27.8462 90.0383 27.8462 87.625V79.25C25.6239 79.25 24 79.895 22.9744 81.185C21.9487 82.475 21.4359 84.58 21.4359 87.5V88.875C21.4359 91.875 21.6068 93.875 21.9487 94.875C22.2906 95.875 22.9316 96.375 23.8718 96.375ZM76.0513 80.75H85.9231L80.9231 66.5L76.0513 80.75ZM71.3077 45.125C67.2051 45.125 63.9368 43.7283 61.5026 40.935C59.0684 38.1417 57.8496 34.3717 57.8462 29.625C57.8462 20.9583 60.6667 13.855 66.3077 8.315C71.9487 2.775 79.1709 0.00333333 87.9744 0C91.5641 0 94.4701 0.396666 96.6923 1.19C98.9145 1.98333 100.026 3.00333 100.026 4.25C100.026 4.75 99.9402 5.25 99.7692 5.75C99.5983 6.25 99.2991 6.70833 98.8718 7.125C98.4445 7.70833 97.9094 8.125 97.2667 8.375C96.6239 8.625 95.9624 8.66666 95.2821 8.5C94.0855 8.16666 92.7179 7.875 91.1795 7.625C89.641 7.375 88.2308 7.25 86.9487 7.25C80.8803 7.25 76.0085 9.25 72.3333 13.25C68.6581 17.25 66.8205 22.5417 66.8205 29.125C66.8205 30.9583 67.1624 32.875 67.8462 34.875C68.5299 36.875 70.0684 37.875 72.4615 37.875C73.4017 37.875 74.3197 37.6667 75.2154 37.25C76.1111 36.8333 76.9026 36.25 77.5897 35.5C79.0427 34 80.388 31.5 81.6256 28C82.8632 24.5 83.9966 20.25 85.0256 15.25C85.1966 14.1667 85.6462 13.3967 86.3744 12.94C87.1026 12.4833 88.106 12.2533 89.3846 12.25C90.9231 12.25 92.0991 12.6467 92.9128 13.44C93.7265 14.2333 93.9607 15.2117 93.6154 16.375C92.5898 19.9583 91.8427 23.0833 91.3744 25.75C90.906 28.4167 90.6701 30.8333 90.6667 33C90.6667 34.6667 90.9026 35.875 91.3744 36.625C91.8462 37.375 92.5504 37.75 93.4872 37.75C94.4239 37.75 95.3436 37.4167 96.2462 36.75C97.1487 36.0833 98.4086 34.8333 100.026 33C100.197 32.75 100.838 32.4583 101.949 32.125C102.632 32.125 103.145 32.375 103.487 32.875C103.829 33.375 104 34.0833 104 35C104 37.3333 102.632 39.5833 99.8974 41.75C97.1624 43.9167 94.2991 45 91.3077 45C89.0855 45 87.1846 44.4167 85.6051 43.25C84.0256 42.0833 82.935 40.4167 82.3333 38.25C81.0513 40.4167 79.4701 42.105 77.5897 43.315C75.7094 44.525 73.6154 45.1283 71.3077 45.125ZM9.12821 45V17.5C9.12821 12.6667 10.8803 8.54167 14.3846 5.125C17.8889 1.70833 22.1197 0 27.0769 0C32.0342 0 36.265 1.70833 39.7692 5.125C43.2735 8.54167 45.0256 12.6667 45.0256 17.5V45H34.7692V35H19.3846V45H9.12821ZM19.3846 25H34.7692V17.5C34.7692 15.4167 34.0222 13.6467 32.5282 12.19C31.0342 10.7333 29.2171 10.0033 27.0769 10C24.9368 9.99666 23.1214 10.7267 21.6308 12.19C20.1402 13.6533 19.3915 15.4233 19.3846 17.5V25Z" fill="white"/>
</g>
<defs>
<filter id="filter0_d_171_34" x="0" y="0" width="108" height="108" filterUnits="userSpaceOnUse" color-interpolation-filters="sRGB">
<feFlood flood-opacity="0" result="BackgroundImageFix"/>
<feColorMatrix in="SourceAlpha" type="matrix" values="0 0 0 0 0 0 0 0 0 0 0 0 0 0 0 0 0 0 127 0" result="hardAlpha"/>
<feOffset dy="4"/>
<feGaussianBlur stdDeviation="2"/>
<feComposite in2="hardAlpha" operator="out"/>
<feColorMatrix type="matrix" values="0 0 0 0 0 0 0 0 0 0 0 0 0 0 0 0 0 0 0.25 0"/>
<feBlend mode="normal" in2="BackgroundImageFix" result="effect1_dropShadow_171_34"/>
<feBlend mode="normal" in="SourceGraphic" in2="effect1_dropShadow_171_34" result="shape"/>
</filter>
</defs>
</svg>
