<svg width="100" height="100" viewBox="0 0 100 100" fill="none" xmlns="http://www.w3.org/2000/svg">
<circle cx="50" cy="50" r="50" fill="white"/>
<rect x="21.7044" y="68.3553" width="64.7974" height="7" rx="3.5" transform="rotate(-40 21.7044 68.3553)" fill="#FFE0CB" stroke="#FFE0CB"/>
<path d="M19.9393 37.9393C19.3536 38.5251 19.3536 39.4749 19.9393 40.0607L29.4853 49.6066C30.0711 50.1924 31.0208 50.1924 31.6066 49.6066C32.1924 49.0208 32.1924 48.0711 31.6066 47.4853L23.1213 39L31.6066 30.5147C32.1924 29.9289 32.1924 28.9792 31.6066 28.3934C31.0208 27.8076 30.0711 27.8076 29.4853 28.3934L19.9393 37.9393ZM22 37.5L21 37.5L21 40.5L22 40.5L22 37.5Z" fill="#FFE0CB"/>
<path d="M79.0607 63.9393C79.6464 64.5251 79.6464 65.4749 79.0607 66.0607L69.5147 75.6066C68.9289 76.1924 67.9792 76.1924 67.3934 75.6066C66.8076 75.0208 66.8076 74.0711 67.3934 73.4853L75.8787 65L67.3934 56.5147C66.8076 55.9289 66.8076 54.9792 67.3934 54.3934C67.9792 53.8076 68.9289 53.8076 69.5147 54.3934L79.0607 63.9393ZM77 63.5L78 63.5L78 66.5L77 66.5L77 63.5Z" fill="#FFE0CB"/>
</svg>
