<svg width="862" height="700" viewBox="0 0 862 700" fill="none" xmlns="http://www.w3.org/2000/svg">
<path d="M254.56 314.48C250.4 314.48 246.667 313.493 243.36 311.52C240.107 309.547 237.52 306.88 235.6 303.52C233.733 300.16 232.8 296.373 232.8 292.16C232.8 287.893 233.68 284.08 235.44 280.72C237.2 277.36 239.627 274.72 242.72 272.8C245.813 270.827 249.36 269.84 253.36 269.84C256.773 269.84 259.893 270.507 262.72 271.84C265.547 273.12 268 275.093 270.08 277.76C270.507 278.293 270.667 278.853 270.56 279.44C270.453 280.027 270.107 280.507 269.52 280.88C269.04 281.253 268.507 281.413 267.92 281.36C267.333 281.253 266.827 280.933 266.4 280.4C262.987 276.347 258.64 274.32 253.36 274.32C250.213 274.32 247.44 275.093 245.04 276.64C242.693 278.187 240.853 280.293 239.52 282.96C238.24 285.627 237.6 288.693 237.6 292.16C237.6 295.52 238.32 298.56 239.76 301.28C241.2 303.947 243.173 306.08 245.68 307.68C248.24 309.227 251.2 310 254.56 310C256.747 310 258.8 309.68 260.72 309.04C262.693 308.4 264.4 307.413 265.84 306.08C266.32 305.653 266.853 305.413 267.44 305.36C268.027 305.307 268.533 305.493 268.96 305.92C269.493 306.4 269.76 306.96 269.76 307.6C269.813 308.187 269.6 308.693 269.12 309.12C265.227 312.693 260.373 314.48 254.56 314.48ZM303.342 314.48C299.182 314.48 295.422 313.52 292.062 311.6C288.702 309.68 286.035 307.067 284.062 303.76C282.142 300.453 281.129 296.72 281.022 292.56V253.92C281.022 253.173 281.235 252.587 281.662 252.16C282.142 251.733 282.729 251.52 283.422 251.52C284.169 251.52 284.755 251.733 285.182 252.16C285.609 252.587 285.822 253.173 285.822 253.92V278.88C287.529 276.107 289.902 273.893 292.942 272.24C296.035 270.587 299.502 269.76 303.342 269.76C307.609 269.76 311.422 270.747 314.782 272.72C318.195 274.64 320.862 277.28 322.782 280.64C324.755 284 325.742 287.813 325.742 292.08C325.742 296.347 324.755 300.187 322.782 303.6C320.862 306.96 318.195 309.627 314.782 311.6C311.422 313.52 307.609 314.48 303.342 314.48ZM303.342 310C306.702 310 309.689 309.227 312.302 307.68C314.969 306.08 317.075 303.947 318.622 301.28C320.169 298.56 320.942 295.493 320.942 292.08C320.942 288.667 320.169 285.627 318.622 282.96C317.075 280.293 314.969 278.187 312.302 276.64C309.689 275.04 306.702 274.24 303.342 274.24C300.035 274.24 297.049 275.04 294.382 276.64C291.715 278.187 289.609 280.293 288.062 282.96C286.569 285.627 285.822 288.667 285.822 292.08C285.822 295.493 286.569 298.56 288.062 301.28C289.609 303.947 291.715 306.08 294.382 307.68C297.049 309.227 300.035 310 303.342 310ZM354.061 314C351.127 313.947 348.514 313.28 346.221 312C343.927 310.667 342.141 308.853 340.861 306.56C339.581 304.213 338.941 301.573 338.941 298.64V258.8C338.941 258.053 339.154 257.467 339.581 257.04C340.061 256.56 340.647 256.32 341.341 256.32C342.087 256.32 342.674 256.56 343.101 257.04C343.581 257.467 343.821 258.053 343.821 258.8V298.64C343.821 301.733 344.781 304.267 346.701 306.24C348.621 308.16 351.101 309.12 354.141 309.12H355.901C356.647 309.12 357.234 309.36 357.661 309.84C358.141 310.267 358.381 310.853 358.381 311.6C358.381 312.293 358.141 312.88 357.661 313.36C357.234 313.787 356.647 314 355.901 314H354.061ZM332.701 276.16C332.061 276.16 331.527 275.973 331.101 275.6C330.727 275.173 330.541 274.64 330.541 274C330.541 273.36 330.727 272.853 331.101 272.48C331.527 272.053 332.061 271.84 332.701 271.84H354.381C355.021 271.84 355.527 272.053 355.901 272.48C356.327 272.853 356.541 273.36 356.541 274C356.541 274.64 356.327 275.173 355.901 275.6C355.527 275.973 355.021 276.16 354.381 276.16H332.701ZM386.806 314.48C382.54 314.48 378.7 313.52 375.286 311.6C371.926 309.627 369.26 306.96 367.286 303.6C365.366 300.187 364.406 296.373 364.406 292.16C364.406 287.893 365.366 284.08 367.286 280.72C369.26 277.307 371.926 274.64 375.286 272.72C378.7 270.747 382.54 269.76 386.806 269.76C391.073 269.76 394.886 270.747 398.246 272.72C401.606 274.64 404.246 277.307 406.166 280.72C408.14 284.08 409.126 287.893 409.126 292.16L407.126 295.36C407.126 298.987 406.22 302.24 404.406 305.12C402.646 308 400.246 310.293 397.206 312C394.166 313.653 390.7 314.48 386.806 314.48ZM386.806 310C390.166 310 393.153 309.227 395.766 307.68C398.433 306.08 400.513 303.947 402.006 301.28C403.553 298.56 404.326 295.52 404.326 292.16C404.326 288.747 403.553 285.707 402.006 283.04C400.513 280.32 398.433 278.187 395.766 276.64C393.153 275.04 390.166 274.24 386.806 274.24C383.5 274.24 380.513 275.04 377.846 276.64C375.18 278.187 373.073 280.32 371.526 283.04C369.98 285.707 369.206 288.747 369.206 292.16C369.206 295.52 369.98 298.56 371.526 301.28C373.073 303.947 375.18 306.08 377.846 307.68C380.513 309.227 383.5 310 386.806 310ZM406.726 314C406.033 314 405.446 313.787 404.966 313.36C404.54 312.88 404.326 312.293 404.326 311.6V296.96L405.846 292.16H409.126V311.6C409.126 312.293 408.913 312.88 408.486 313.36C408.06 313.787 407.473 314 406.726 314ZM428.303 314C426.276 314 424.463 313.44 422.863 312.32C421.316 311.2 420.09 309.653 419.183 307.68C418.33 305.707 417.903 303.413 417.903 300.8V253.92C417.903 253.173 418.116 252.587 418.543 252.16C419.023 251.733 419.61 251.52 420.303 251.52C421.05 251.52 421.636 251.733 422.063 252.16C422.49 252.587 422.703 253.173 422.703 253.92V300.8C422.703 303.253 423.21 305.28 424.223 306.88C425.29 308.427 426.65 309.2 428.303 309.2H430.303C430.89 309.2 431.37 309.413 431.743 309.84C432.116 310.267 432.303 310.853 432.303 311.6C432.303 312.293 432.09 312.88 431.663 313.36C431.236 313.787 430.65 314 429.903 314H428.303ZM443.466 314C442.772 314 442.186 313.787 441.706 313.36C441.279 312.88 441.066 312.293 441.066 311.6V272.64C441.066 271.893 441.279 271.307 441.706 270.88C442.186 270.453 442.772 270.24 443.466 270.24C444.212 270.24 444.799 270.453 445.226 270.88C445.652 271.307 445.866 271.893 445.866 272.64V311.6C445.866 312.293 445.652 312.88 445.226 313.36C444.799 313.787 444.212 314 443.466 314ZM443.386 261.04C442.372 261.04 441.492 260.693 440.746 260C440.052 259.253 439.706 258.347 439.706 257.28C439.706 256.053 440.079 255.147 440.826 254.56C441.626 253.92 442.506 253.6 443.466 253.6C444.372 253.6 445.199 253.92 445.946 254.56C446.746 255.147 447.146 256.053 447.146 257.28C447.146 258.347 446.772 259.253 446.026 260C445.332 260.693 444.452 261.04 443.386 261.04ZM480.287 314.48C476.021 314.48 472.181 313.52 468.767 311.6C465.407 309.627 462.741 306.96 460.767 303.6C458.847 300.187 457.887 296.373 457.887 292.16C457.887 287.893 458.847 284.08 460.767 280.72C462.741 277.307 465.407 274.64 468.767 272.72C472.181 270.747 476.021 269.76 480.287 269.76C484.554 269.76 488.367 270.747 491.727 272.72C495.087 274.64 497.727 277.307 499.647 280.72C501.621 284.08 502.607 287.893 502.607 292.16L500.607 295.36C500.607 298.987 499.701 302.24 497.887 305.12C496.127 308 493.727 310.293 490.687 312C487.647 313.653 484.181 314.48 480.287 314.48ZM480.287 310C483.647 310 486.634 309.227 489.247 307.68C491.914 306.08 493.994 303.947 495.487 301.28C497.034 298.56 497.807 295.52 497.807 292.16C497.807 288.747 497.034 285.707 495.487 283.04C493.994 280.32 491.914 278.187 489.247 276.64C486.634 275.04 483.647 274.24 480.287 274.24C476.981 274.24 473.994 275.04 471.327 276.64C468.661 278.187 466.554 280.32 465.007 283.04C463.461 285.707 462.687 288.747 462.687 292.16C462.687 295.52 463.461 298.56 465.007 301.28C466.554 303.947 468.661 306.08 471.327 307.68C473.994 309.227 476.981 310 480.287 310ZM500.207 314C499.514 314 498.927 313.787 498.447 313.36C498.021 312.88 497.807 312.293 497.807 311.6V296.96L499.327 292.16H502.607V311.6C502.607 312.293 502.394 312.88 501.967 313.36C501.541 313.787 500.954 314 500.207 314Z" fill="white"/>
<path opacity="0.9" d="M268.2 400.48C263.933 400.48 260.093 399.52 256.68 397.6C253.32 395.627 250.653 392.96 248.68 389.6C246.76 386.187 245.8 382.347 245.8 378.08C245.8 373.813 246.76 370 248.68 366.64C250.653 363.28 253.32 360.64 256.68 358.72C260.093 356.747 263.933 355.76 268.2 355.76C272.04 355.76 275.48 356.587 278.52 358.24C281.613 359.893 284.013 362.107 285.72 364.88V339.92C285.72 339.173 285.933 338.587 286.36 338.16C286.84 337.733 287.427 337.52 288.12 337.52C288.867 337.52 289.453 337.733 289.88 338.16C290.307 338.587 290.52 339.173 290.52 339.92V378.56C290.467 382.72 289.453 386.453 287.48 389.76C285.507 393.067 282.84 395.68 279.48 397.6C276.173 399.52 272.413 400.48 268.2 400.48ZM268.2 396C271.56 396 274.547 395.227 277.16 393.68C279.827 392.08 281.907 389.947 283.4 387.28C284.947 384.56 285.72 381.493 285.72 378.08C285.72 374.667 284.947 371.627 283.4 368.96C281.907 366.293 279.827 364.187 277.16 362.64C274.547 361.04 271.56 360.24 268.2 360.24C264.893 360.24 261.907 361.04 259.24 362.64C256.573 364.187 254.467 366.293 252.92 368.96C251.373 371.627 250.6 374.667 250.6 378.08C250.6 381.493 251.373 384.56 252.92 387.28C254.467 389.947 256.573 392.08 259.24 393.68C261.907 395.227 264.893 396 268.2 396ZM322.679 400.4C318.465 400.4 314.705 399.467 311.399 397.6C308.145 395.68 305.585 393.04 303.719 389.68C301.852 386.32 300.919 382.48 300.919 378.16C300.919 373.787 301.799 369.947 303.559 366.64C305.319 363.28 307.745 360.64 310.839 358.72C313.932 356.8 317.479 355.84 321.479 355.84C325.425 355.84 328.919 356.773 331.959 358.64C334.999 360.453 337.372 362.987 339.079 366.24C340.785 369.44 341.639 373.147 341.639 377.36C341.639 378.053 341.425 378.613 340.999 379.04C340.572 379.413 340.012 379.6 339.319 379.6H304.119V375.44H340.599L337.079 378.08C337.185 374.613 336.599 371.547 335.319 368.88C334.039 366.213 332.199 364.133 329.799 362.64C327.452 361.093 324.679 360.32 321.479 360.32C318.439 360.32 315.719 361.093 313.319 362.64C310.972 364.133 309.105 366.213 307.719 368.88C306.385 371.547 305.719 374.64 305.719 378.16C305.719 381.627 306.439 384.693 307.879 387.36C309.319 390.027 311.319 392.133 313.879 393.68C316.439 395.173 319.372 395.92 322.679 395.92C324.759 395.92 326.839 395.573 328.919 394.88C331.052 394.133 332.732 393.173 333.959 392C334.385 391.573 334.892 391.36 335.479 391.36C336.119 391.307 336.652 391.467 337.079 391.84C337.665 392.32 337.959 392.853 337.959 393.44C338.012 394.027 337.772 394.56 337.239 395.04C335.532 396.587 333.292 397.867 330.519 398.88C327.799 399.893 325.185 400.4 322.679 400.4ZM365.349 400.48C362.575 400.48 359.669 399.973 356.629 398.96C353.589 397.947 351.055 396.24 349.029 393.84C348.602 393.307 348.415 392.747 348.469 392.16C348.575 391.52 348.922 390.987 349.509 390.56C350.042 390.187 350.602 390.053 351.189 390.16C351.829 390.267 352.335 390.56 352.709 391.04C354.255 392.853 356.122 394.133 358.309 394.88C360.549 395.573 362.975 395.92 365.589 395.92C370.069 395.92 373.242 395.12 375.109 393.52C376.975 391.92 377.909 390.053 377.909 387.92C377.909 385.84 376.895 384.133 374.869 382.8C372.895 381.413 369.829 380.427 365.669 379.84C360.335 379.093 356.389 377.653 353.829 375.52C351.269 373.387 349.989 370.907 349.989 368.08C349.989 365.413 350.655 363.173 351.989 361.36C353.322 359.493 355.135 358.107 357.429 357.2C359.775 356.24 362.442 355.76 365.429 355.76C369.055 355.76 372.122 356.427 374.629 357.76C377.135 359.04 379.162 360.773 380.709 362.96C381.135 363.493 381.269 364.08 381.109 364.72C381.002 365.307 380.602 365.787 379.909 366.16C379.375 366.427 378.815 366.507 378.229 366.4C377.642 366.293 377.135 365.973 376.709 365.44C375.375 363.733 373.749 362.453 371.829 361.6C369.962 360.693 367.775 360.24 365.269 360.24C361.909 360.24 359.295 360.96 357.429 362.4C355.562 363.84 354.629 365.573 354.629 367.6C354.629 368.987 355.002 370.213 355.749 371.28C356.549 372.293 357.829 373.173 359.589 373.92C361.349 374.613 363.695 375.173 366.629 375.6C370.629 376.133 373.775 377.04 376.069 378.32C378.415 379.6 380.069 381.093 381.029 382.8C382.042 384.453 382.549 386.24 382.549 388.16C382.549 390.667 381.749 392.853 380.149 394.72C378.549 396.587 376.442 398.027 373.829 399.04C371.215 400 368.389 400.48 365.349 400.48ZM395.759 400C395.066 400 394.479 399.787 393.999 399.36C393.573 398.88 393.359 398.293 393.359 397.6V358.64C393.359 357.893 393.573 357.307 393.999 356.88C394.479 356.453 395.066 356.24 395.759 356.24C396.506 356.24 397.093 356.453 397.519 356.88C397.946 357.307 398.159 357.893 398.159 358.64V397.6C398.159 398.293 397.946 398.88 397.519 399.36C397.093 399.787 396.506 400 395.759 400ZM395.679 347.04C394.666 347.04 393.786 346.693 393.039 346C392.346 345.253 391.999 344.347 391.999 343.28C391.999 342.053 392.373 341.147 393.119 340.56C393.919 339.92 394.799 339.6 395.759 339.6C396.666 339.6 397.493 339.92 398.239 340.56C399.039 341.147 399.439 342.053 399.439 343.28C399.439 344.347 399.066 345.253 398.319 346C397.626 346.693 396.746 347.04 395.679 347.04ZM432.581 400.48C428.208 400.48 424.341 399.52 420.981 397.6C417.621 395.68 414.981 393.04 413.061 389.68C411.141 386.32 410.181 382.48 410.181 378.16C410.181 373.787 411.168 369.92 413.141 366.56C415.115 363.2 417.781 360.56 421.141 358.64C424.555 356.72 428.368 355.76 432.581 355.76C436.955 355.76 440.795 356.72 444.101 358.64C447.461 360.56 450.101 363.2 452.021 366.56C453.941 369.92 454.901 373.787 454.901 378.16L452.101 381.36C452.101 385.093 451.275 388.4 449.621 391.28C447.968 394.16 445.675 396.427 442.741 398.08C439.808 399.68 436.421 400.48 432.581 400.48ZM432.901 416.72C428.475 416.72 424.688 415.893 421.541 414.24C418.448 412.587 415.888 410.48 413.861 407.92C413.435 407.387 413.221 406.827 413.221 406.24C413.221 405.653 413.488 405.173 414.021 404.8C414.555 404.373 415.168 404.213 415.861 404.32C416.608 404.427 417.168 404.773 417.541 405.36C419.195 407.333 421.301 408.96 423.861 410.24C426.421 411.573 429.435 412.24 432.901 412.24C436.208 412.24 439.141 411.44 441.701 409.84C444.315 408.24 446.368 406.027 447.861 403.2C449.355 400.427 450.101 397.307 450.101 393.84V381.12L452.261 378.16H454.901V393.84C454.901 398.16 453.941 402.053 452.021 405.52C450.101 408.987 447.488 411.707 444.181 413.68C440.875 415.707 437.115 416.72 432.901 416.72ZM432.581 396C435.995 396 439.008 395.253 441.621 393.76C444.288 392.213 446.368 390.107 447.861 387.44C449.355 384.72 450.101 381.627 450.101 378.16C450.101 374.64 449.355 371.547 447.861 368.88C446.368 366.16 444.288 364.053 441.621 362.56C439.008 361.013 435.995 360.24 432.581 360.24C429.168 360.24 426.128 361.013 423.461 362.56C420.795 364.053 418.715 366.16 417.221 368.88C415.728 371.547 414.981 374.64 414.981 378.16C414.981 381.627 415.728 384.72 417.221 387.44C418.715 390.107 420.795 392.213 423.461 393.76C426.128 395.253 429.168 396 432.581 396ZM503.118 400C502.425 400 501.838 399.787 501.358 399.36C500.931 398.88 500.718 398.293 500.718 397.6V376.08C500.718 372.56 500.025 369.653 498.638 367.36C497.305 365.067 495.465 363.36 493.118 362.24C490.825 361.067 488.211 360.48 485.278 360.48C482.398 360.48 479.811 361.04 477.518 362.16C475.225 363.227 473.411 364.72 472.078 366.64C470.745 368.56 470.078 370.72 470.078 373.12H466.078C466.291 369.813 467.278 366.853 469.038 364.24C470.798 361.573 473.091 359.493 475.918 358C478.745 356.453 481.865 355.68 485.278 355.68C489.118 355.68 492.558 356.48 495.598 358.08C498.691 359.627 501.118 361.92 502.878 364.96C504.638 367.947 505.518 371.653 505.518 376.08V397.6C505.518 398.293 505.278 398.88 504.798 399.36C504.371 399.787 503.811 400 503.118 400ZM467.678 400C466.985 400 466.398 399.787 465.918 399.36C465.491 398.88 465.278 398.293 465.278 397.6V358.64C465.278 357.893 465.491 357.307 465.918 356.88C466.398 356.453 466.985 356.24 467.678 356.24C468.425 356.24 469.011 356.453 469.438 356.88C469.865 357.307 470.078 357.893 470.078 358.64V397.6C470.078 398.293 469.865 398.88 469.438 399.36C469.011 399.787 468.425 400 467.678 400ZM532.386 400.48C529.613 400.48 526.706 399.973 523.666 398.96C520.626 397.947 518.093 396.24 516.066 393.84C515.64 393.307 515.453 392.747 515.506 392.16C515.613 391.52 515.96 390.987 516.546 390.56C517.08 390.187 517.64 390.053 518.226 390.16C518.866 390.267 519.373 390.56 519.746 391.04C521.293 392.853 523.16 394.133 525.346 394.88C527.586 395.573 530.013 395.92 532.626 395.92C537.106 395.92 540.28 395.12 542.146 393.52C544.013 391.92 544.946 390.053 544.946 387.92C544.946 385.84 543.933 384.133 541.906 382.8C539.933 381.413 536.866 380.427 532.706 379.84C527.373 379.093 523.426 377.653 520.866 375.52C518.306 373.387 517.026 370.907 517.026 368.08C517.026 365.413 517.693 363.173 519.026 361.36C520.36 359.493 522.173 358.107 524.466 357.2C526.813 356.24 529.48 355.76 532.466 355.76C536.093 355.76 539.16 356.427 541.666 357.76C544.173 359.04 546.2 360.773 547.746 362.96C548.173 363.493 548.306 364.08 548.146 364.72C548.04 365.307 547.64 365.787 546.946 366.16C546.413 366.427 545.853 366.507 545.266 366.4C544.68 366.293 544.173 365.973 543.746 365.44C542.413 363.733 540.786 362.453 538.866 361.6C537 360.693 534.813 360.24 532.306 360.24C528.946 360.24 526.333 360.96 524.466 362.4C522.6 363.84 521.666 365.573 521.666 367.6C521.666 368.987 522.04 370.213 522.786 371.28C523.586 372.293 524.866 373.173 526.626 373.92C528.386 374.613 530.733 375.173 533.666 375.6C537.666 376.133 540.813 377.04 543.106 378.32C545.453 379.6 547.106 381.093 548.066 382.8C549.08 384.453 549.586 386.24 549.586 388.16C549.586 390.667 548.786 392.853 547.186 394.72C545.586 396.587 543.48 398.027 540.866 399.04C538.253 400 535.426 400.48 532.386 400.48Z" fill="white"/>
<circle cx="234" cy="394" r="6" fill="white"/>
<path opacity="0.9" d="M581.7 405.4C581.167 405.4 580.533 405.267 579.8 405C576 403.667 572.9 401.767 570.5 399.3C568.167 396.833 566.467 393.967 565.4 390.7C564.333 387.433 563.8 384.033 563.8 380.5C563.8 376.433 564.4 372.367 565.6 368.3C566.867 364.233 568.567 360.5 570.7 357.1C572.9 353.7 575.433 350.9 578.3 348.7C581.167 346.5 584.233 345.233 587.5 344.9H588.1C589.033 344.9 589.5 345.067 589.5 345.4C589.5 345.667 588.867 346 587.6 346.4C586 346.867 584.133 348.267 582 350.6C579.933 352.867 577.9 355.833 575.9 359.5C573.967 363.1 572.333 367.167 571 371.7C569.733 376.167 569.1 380.833 569.1 385.7C569.1 388.7 569.467 391.5 570.2 394.1C571 396.633 572.233 398.7 573.9 400.3C575.633 401.9 577.9 402.833 580.7 403.1C582.167 403.233 582.9 403.733 582.9 404.6C582.9 405.133 582.5 405.4 581.7 405.4ZM603.548 406.3C602.615 406.3 602.148 406.167 602.148 405.9C602.148 405.5 602.782 405.133 604.048 404.8C605.648 404.333 607.482 402.933 609.548 400.6C611.682 398.333 613.715 395.4 615.648 391.8C617.648 388.133 619.282 384.067 620.548 379.6C621.882 375.067 622.548 370.367 622.548 365.5C622.548 362.5 622.148 359.733 621.348 357.2C620.615 354.6 619.415 352.5 617.748 350.9C616.082 349.233 613.815 348.3 610.948 348.1C609.415 347.967 608.648 347.467 608.648 346.6C608.648 346.067 609.082 345.8 609.948 345.8C610.482 345.8 611.115 345.933 611.848 346.2C615.648 347.467 618.715 349.367 621.048 351.9C623.448 354.433 625.182 357.333 626.248 360.6C627.315 363.8 627.848 367.167 627.848 370.7C627.848 374.767 627.215 378.833 625.948 382.9C624.748 386.967 623.048 390.7 620.848 394.1C618.715 397.5 616.215 400.3 613.348 402.5C610.482 404.7 607.415 405.967 604.148 406.3H603.548Z" fill="white"/>
<rect x="146.5" y="175.5" width="569" height="305" rx="42.5" stroke="#FFB07A" stroke-width="15"/>
<rect x="96" y="513" width="670" height="20" rx="10" fill="#FFB07A"/>
</svg>
