<svg width="100" height="107" viewBox="0 0 100 107" fill="none" xmlns="http://www.w3.org/2000/svg">
<mask id="mask0_70_226" style="mask-type:alpha" maskUnits="userSpaceOnUse" x="0" y="0" width="100" height="107">
<path fill-rule="evenodd" clip-rule="evenodd" d="M55.2068 0C58.4677 0 61.1111 2.64345 61.1111 5.90432C61.1111 9.16518 58.4677 11.8086 55.2068 11.8086H36.1111C22.304 11.8086 11.1111 23.0015 11.1111 36.8086V55.5801C11.1111 77.0579 28.5223 94.469 50 94.469H62.3195C76.9934 94.469 88.8889 82.5735 88.8889 67.8996V46.8858C88.8889 43.8175 91.3762 41.3302 94.4444 41.3302C97.5127 41.3302 100 43.8175 100 46.8858V100.373C100 101.939 99.4147 103.441 98.3728 104.548C97.3309 105.656 95.9179 106.278 94.4444 106.278H5.55556C4.08213 106.278 2.66905 105.656 1.62718 104.548C0.585316 103.441 0 101.939 0 100.373V5.90432C0 4.33839 0.585316 2.83661 1.62718 1.72933C2.66905 0.62206 4.08213 0 5.55556 0H55.2068ZM94.1111 2.08718C94.1111 2.08907 94.1118 2.0909 94.1131 2.09228L98.0389 6.26448C98.5596 6.81809 98.8522 7.56885 98.8522 8.35166C98.8522 9.13446 98.5596 9.88522 98.0389 10.4388L54.7471 56.4434C49.0816 62.4639 42.4483 67.4937 35.1222 71.3241C34.8097 71.4887 34.4565 71.5449 34.1123 71.4849C33.7682 71.4248 33.4504 71.2515 33.2038 70.9894C32.9572 70.7273 32.7941 70.3896 32.7377 70.0239C32.6812 69.6581 32.7341 69.2827 32.8889 68.9506C36.495 61.1605 41.3322 54.0021 47.2147 47.7503L90.1833 2.08422C90.7042 1.53078 91.4107 1.21987 92.1472 1.21987C92.8828 1.21987 93.5884 1.52997 94.1091 2.08207C94.1104 2.08345 94.1111 2.08528 94.1111 2.08718Z" fill="#B4BCCA"/>
</mask>
<g mask="url(#mask0_70_226)">
<rect width="100" height="106" transform="matrix(1 0 0 -1 0 106)" fill="white"/>
</g>
</svg>
