<svg width="425" height="415" viewBox="0 0 425 415" fill="none" xmlns="http://www.w3.org/2000/svg">
<g clip-path="url(#clip0_189_166)">
<rect width="425" height="415" fill="white"/>
<mask id="mask0_189_166" style="mask-type:alpha" maskUnits="userSpaceOnUse" x="1" y="0" width="453" height="454">
<rect x="1.97815" width="452.022" height="454" fill="#D9D9D9"/>
</mask>
<g mask="url(#mask0_189_166)">
<path d="M434.629 -22H-62.2743V296.669H434.629V-22Z" fill="url(#paint0_linear_189_166)"/>
<path d="M331.781 258.236C331.781 309.632 301.018 351.295 263.071 351.295C225.123 351.295 194.362 309.632 194.362 258.236C194.362 257.529 194.366 256.824 194.381 256.122L268.375 252.829L194.638 249.815C195.297 239.893 197.102 230.419 199.879 221.641L268.373 219.136L202.128 215.21C213.595 185.472 236.582 165.175 263.069 165.175C278.264 165.175 292.307 171.856 303.685 183.168C285.266 184.14 224.728 185.374 224.728 185.374L307.563 187.318C312.447 192.941 316.743 199.478 320.304 206.726L270.684 209.748L322.644 211.842C324.156 215.388 325.498 219.084 326.655 222.907L302.774 225.089L327.849 227.14C329.399 233.059 330.518 239.251 331.155 245.651C324.551 245.188 309.189 246.361 309.189 246.361L331.454 249.165C331.671 252.153 331.781 255.179 331.781 258.236Z" fill="#FCFF00"/>
<path d="M434.629 296.67H-62.2742V426.668H434.629V296.67Z" fill="url(#paint1_linear_189_166)"/>
<path d="M435.224 311.073H270.258L435.224 318.55V311.073Z" fill="#E5889A"/>
<path d="M435.221 330.562H207.005L435.221 333.794V330.562Z" fill="#E5889A"/>
<path d="M221.054 323.083H35.0424L221.054 330.561" fill="#E5889A"/>
<path d="M251.943 343.869H65.9313L251.943 351.347" fill="#E5889A"/>
<path d="M314.06 311.073H128.048L314.06 318.55" fill="#E5889A"/>
<path d="M434.629 347.245V426.668H-38.803L112.487 336.155H112.489L178.486 296.669L181.578 294.82C188.951 290.408 196.447 286.612 204.034 283.428C211.224 280.411 218.495 277.94 225.817 276.025C252.155 269.125 279.156 269.358 305.451 276.718C319.651 280.69 333.645 286.744 347.219 294.877L350.209 296.669L434.629 347.245Z" fill="#0C011C"/>
<path d="M434.629 368.882L391.45 339.986L421.708 367.596L407.686 376.222L364.683 348.844L396.546 361.669L364.683 341.712V318.415L302.903 279.502L305.451 276.718C319.651 280.69 333.645 286.744 347.219 294.878L350.209 296.669L434.629 347.245V368.882V368.882Z" fill="#220C44"/>
<path d="M225.817 276.025L207.005 305.473L170.926 332.22L163.076 355.048L110.523 389.595H91.5237C91.5237 389.595 64.2429 408.83 39.3255 426.668H-9.61943C-10.1715 424.813 -10.5134 423.674 -10.5134 423.674L112.487 336.155H112.489L178.486 296.669L181.578 294.82C188.951 290.408 196.447 286.611 204.034 283.428C211.224 280.411 218.495 277.94 225.817 276.025Z" fill="#220C44"/>
<path d="M297.571 257.417C297.293 257.808 297.03 258.173 296.783 258.521C295.59 260.192 294.736 261.389 294.125 262.243C292.591 264.388 292.591 264.388 292.591 264.388L267.086 271.018L241.58 264.388C241.58 264.388 241.58 264.388 236.601 257.417C237.412 257.166 238.163 256.839 238.86 256.439C247.445 251.495 247.651 235.469 246.56 219.933C245.377 203.131 244.449 192.386 244.449 192.386C244.449 192.386 244.536 185.561 244.515 177.229C244.494 167.603 244.332 155.963 243.725 150.516C245.479 149.952 247.38 149.506 249.337 148.969C248.847 158.35 248.875 186.616 267.086 186.616C285.297 186.616 285.325 158.35 284.834 148.969C286.792 149.506 288.693 149.952 290.447 150.516C289.665 157.545 289.618 174.899 289.663 184.919C289.667 185.946 289.674 186.895 289.68 187.749C289.699 190.603 289.722 192.386 289.722 192.386C289.722 192.386 288.794 203.131 287.612 219.933C286.431 236.732 286.769 254.101 297.571 257.417Z" fill="#381F49"/>
<path d="M238.157 257.417C238.435 257.808 238.699 258.173 238.945 258.521C240.138 260.192 240.992 261.389 241.604 262.243C242.084 262.168 242.585 262.085 243.107 261.987C252.451 260.261 252.884 245.726 252.884 245.726L263.068 248.182C263.068 248.182 263.635 244.541 260.278 236.488C256.923 228.435 252.27 224.805 255.479 221.722C258.636 218.685 260.227 213.082 260.276 212.907C260.242 212.941 259.533 213.522 254.198 208.227C253.37 207.129 248.289 193.715 246.048 187.75C246.029 190.603 246.006 192.386 246.006 192.386C246.006 192.386 246.934 203.131 248.117 219.933C249.297 236.732 248.96 254.101 238.157 257.417Z" fill="#4D2D66"/>
<path d="M297.571 257.417C297.293 257.808 297.029 258.173 296.783 258.521C286.359 257.353 284.675 242.91 284.675 242.91L278.712 244.348L282.844 239.458C282.844 239.458 284.021 211.848 284.233 204.946C284.39 199.852 287.858 189.823 289.663 184.919C289.684 189.377 289.722 192.386 289.722 192.386C289.722 192.386 288.794 203.131 287.612 219.933C286.431 236.732 286.769 254.101 297.571 257.417Z" fill="#FCFF00"/>
<path d="M248.558 246.936C251.637 253.551 251.637 253.551 251.637 253.551C251.637 253.551 248.834 250.523 247.528 249.019C245.207 253.134 240.956 256.931 238.86 256.439C247.445 251.495 247.651 235.47 246.56 219.933C245.377 203.131 244.449 192.386 244.449 192.386C244.449 192.386 244.536 185.561 244.515 177.229C245.572 185.702 246.785 195.429 247.071 197.756C247.602 202.07 248.345 217.888 250.681 225.51C253.017 233.131 253.017 240.609 248.558 246.936Z" fill="#FCFF00"/>
<path d="M349.684 265.567L301.24 282.663C300.565 283.106 274.913 290.218 266.136 290.135C260.541 290.077 256.871 287.057 254.941 284.877L248.416 285.361L232.341 279.502C232.341 279.502 219.682 266.847 186.901 251.699C191.465 238.955 202.722 241.302 212.106 242.915C212.239 242.938 212.377 242.964 212.524 242.996C217.346 244.02 229.295 249.467 240.533 254.917C244.209 256.698 247.808 258.478 251.057 260.106C255.527 262.346 260.254 263.494 265.019 263.494H275.24C278.941 263.494 282.625 262.801 286.187 261.437L288.584 260.52C288.584 260.52 320.312 246.789 334.688 250.448C349.066 254.1 349.684 265.567 349.684 265.567Z" fill="#331031"/>
<path d="M286.788 294.191C287.467 288.057 286.134 283.354 284.855 280.432C291.976 275.69 315.751 260.694 331.522 260.694C333.18 260.694 334.724 260.86 336.113 261.188C336.247 261.194 347.741 261.617 349.534 265.548C349.824 266.187 349.837 266.869 349.572 267.634C347.474 273.679 342.261 277.251 342.207 277.289C337.824 280.395 331.766 283.518 324.2 286.573C319.261 288.563 307.023 291.056 286.788 294.191Z" fill="#808080"/>
<path d="M331.522 260.523V260.865C333.172 260.865 334.707 261.029 336.089 261.357L336.108 261.363H336.127C336.242 261.365 347.669 261.785 349.425 265.636C349.693 266.22 349.701 266.85 349.457 267.558C347.378 273.546 342.203 277.095 342.146 277.135C337.771 280.235 331.721 283.353 324.164 286.405C319.245 288.389 307.067 290.871 286.936 293.994C287.554 288.029 286.286 283.425 285.031 280.503C288.845 277.966 296.241 273.267 304.583 269.119C315.593 263.643 324.656 260.865 331.519 260.865L331.522 260.523ZM331.519 260.523C315.349 260.526 291.24 275.976 284.675 280.359C286.11 283.569 287.354 288.288 286.637 294.386C302.807 291.883 318.364 289.102 324.236 286.732C329.899 284.446 336.854 281.271 342.262 277.437C342.262 277.437 347.543 273.873 349.684 267.704C351.829 261.532 336.134 261.017 336.134 261.017C334.692 260.678 333.148 260.523 331.519 260.523Z" fill="black"/>
<path d="M286.637 294.386C266.544 297.495 245.507 300.184 240.947 301.133C232.721 302.847 230.568 302.675 228.922 303.189C227.276 303.704 224.745 297.705 228.922 296.333C233.099 294.961 232.971 299.591 242.213 292.217C251.452 284.846 253.984 284.158 256.262 280.218C258.541 276.275 264.111 275.418 267.084 281.075C270.056 286.733 278.793 284.334 283.602 281.075C283.876 280.891 284.235 280.647 284.673 280.359C286.11 283.569 287.355 288.288 286.637 294.386Z" fill="#8E3855"/>
<path d="M349.684 267.704C347.541 273.874 342.262 277.437 342.262 277.437C336.851 281.271 329.897 284.446 324.234 286.733C318.364 289.102 302.807 291.884 286.637 294.386C286.787 293.109 286.851 291.892 286.847 290.736C286.826 286.376 285.809 282.899 284.675 280.359C291.901 275.533 320.377 257.302 336.132 261.018C336.132 261.018 344.872 261.305 348.418 264.014C349.624 264.935 350.228 266.137 349.684 267.704Z" fill="#4C1847"/>
<path d="M245.97 292.725C226.336 285.385 214.531 280.355 209.881 277.352C202.754 272.747 197.127 268.39 193.154 264.407C193.105 264.358 188.361 259.736 186.98 253.322C186.817 252.566 186.885 251.933 187.186 251.39C187.983 249.952 190.446 249.192 194.311 249.192C197.679 249.192 200.964 249.773 200.996 249.779C201.136 249.779 201.257 249.776 201.38 249.776C216.939 249.776 241.963 272.408 249.454 279.541C247.853 282.155 245.999 286.524 245.97 292.725Z" fill="#808080"/>
<path d="M194.309 249.361C197.666 249.361 200.945 249.939 200.976 249.945L200.996 249.948H201.015C201.136 249.945 201.255 249.945 201.378 249.945C208.152 249.945 217.425 254.176 228.943 262.519C237.603 268.792 245.309 275.809 249.267 279.571C247.696 282.194 245.916 286.48 245.844 292.502C226.312 285.197 214.567 280.19 209.933 277.199C202.815 272.6 197.194 268.248 193.223 264.265C193.177 264.219 188.469 259.629 187.099 253.275C186.948 252.574 187.008 251.99 187.284 251.492C188.057 250.097 190.484 249.361 194.309 249.361ZM194.309 249.019C190.291 249.019 186.095 249.833 186.859 253.37C188.269 259.916 193.079 264.544 193.079 264.544C197.987 269.465 204.493 274.061 209.825 277.506C215.355 281.078 230.404 287.086 246.095 292.951C246.082 286.779 247.851 282.375 249.637 279.505C243.099 273.273 217.395 249.606 201.378 249.603C201.255 249.603 201.134 249.603 201.01 249.606C201.01 249.606 197.723 249.019 194.309 249.019Z" fill="black"/>
<path d="M246.095 292.947C265.591 300.232 286.066 307.299 290.461 309.194C298.393 312.614 300.54 312.896 302.107 313.747C303.674 314.601 306.861 309.203 302.89 306.971C298.921 304.739 298.516 309.341 290.23 300.12C281.944 290.9 279.521 289.692 277.72 285.32C275.919 280.945 270.515 278.932 266.931 283.896C263.346 288.86 254.992 284.659 250.611 280.434C250.363 280.192 250.036 279.878 249.634 279.502C247.851 282.372 246.082 286.775 246.095 292.947Z" fill="#A55B71"/>
<path d="M249.637 279.502C248.276 281.688 246.925 284.766 246.366 288.838C246.19 290.109 246.093 291.478 246.095 292.948C230.404 287.084 215.355 281.076 209.825 277.504C204.491 274.058 197.984 269.462 193.077 264.541C193.077 264.541 188.267 259.916 186.857 253.37C186.369 251.101 187.917 249.954 190.149 249.422C194.362 248.415 201.01 249.606 201.01 249.606C217 249.237 243.047 273.221 249.637 279.502Z" fill="#4C1847"/>
<path d="M180.563 249.018C178.359 248.524 175.751 248.018 174.116 247.931C170.824 247.759 170.362 245.875 171.457 245.648C172.553 245.418 174.241 245.875 175.424 246.045C175.834 246.102 176.448 246.076 177.07 246.007C178.255 246.971 179.514 248.095 180.563 249.018Z" fill="#A55B71"/>
<path d="M360.055 247.931C358.42 248.017 355.813 248.524 353.608 249.018C354.66 248.095 355.917 246.97 357.102 246.007C357.724 246.076 358.338 246.102 358.747 246.044C359.93 245.872 361.618 245.417 362.714 245.647C363.81 245.875 363.347 247.758 360.055 247.931Z" fill="#A55B71"/>
<path d="M244.449 192.386C244.449 192.386 242.003 211.017 240.484 220.617C238.966 230.218 233.986 233.074 233.986 233.074C233.986 233.074 212.341 243.028 199.483 248.325C194.969 250.183 191.535 251.469 190.507 251.547C186.551 251.846 183.958 251.846 181.964 250.218C181.574 249.899 181.096 249.485 180.563 249.019C179.514 248.095 178.255 246.971 177.07 246.007C175.791 244.963 174.596 244.106 173.831 243.873C171.994 243.318 168.516 241.687 169.748 240.485C170.982 239.286 171.742 239.674 173.608 240.83C174.713 241.515 176.201 242.185 177.237 242.616C177.237 242.616 177.242 242.616 177.252 242.622C177.959 242.921 178.45 243.102 178.45 243.102C178.45 243.102 178.45 243.091 178.45 243.071C178.441 242.864 178.41 241.59 178.609 238.903C178.83 235.947 178.896 233.074 180.034 233.033C181.174 232.987 181.257 234.86 181.066 236.073C180.879 237.287 180.635 240.189 181.066 242.372C181.329 243.695 182.502 244.296 183.648 244.509C184.402 244.647 185.141 244.618 185.604 244.518C186.15 244.397 186.373 244.023 186.464 243.525C186.568 242.956 186.5 242.225 186.551 241.515C186.647 240.189 185.791 238.429 183.483 237.532C181.174 236.634 180.096 232.559 182.185 231.615C184.273 230.675 185.791 234.103 187.309 235.774C188.518 237.103 191.025 238.728 194.294 239.985C195.134 240.31 196.028 240.609 196.963 240.874C201.52 242.159 205.506 239.418 213.102 230.502C220.695 221.587 228.164 219.789 228.164 219.789C228.1 209.332 233.101 190.301 233.101 181.986C233.101 173.671 232.53 166.216 235.379 157.902C236.859 153.573 239.837 151.799 243.466 150.602C243.551 150.571 243.638 150.545 243.725 150.516C244.855 160.674 244.449 192.386 244.449 192.386Z" fill="#A55B71"/>
<path d="M267.086 186.616C249.112 186.616 248.851 159.081 249.318 149.345C249.325 149.216 249.331 149.089 249.338 148.969C251.043 148.497 252.793 147.95 254.521 147.185C258.029 145.632 259.486 140.87 260.019 136.035C260.242 134.022 260.303 131.997 260.284 130.185C260.252 126.498 259.891 123.699 259.891 123.699L265.003 121.744C268.069 122.742 271.42 123.86 274.166 124.781C274.066 125.833 273.932 127.576 273.894 129.647C273.894 129.647 273.894 129.647 273.894 129.65C273.818 133.84 274.138 139.368 275.947 143.196C276.807 145.017 278.003 146.455 279.651 147.185C281.379 147.95 283.129 148.497 284.834 148.969C284.843 149.121 284.849 149.276 284.858 149.437C285.319 159.253 285.004 186.616 267.086 186.616Z" fill="#A55B71"/>
<path d="M260.019 136.035C260.694 129.923 259.891 123.699 259.891 123.699L265.002 121.744C268.069 122.742 271.42 123.86 274.165 124.781C273.862 127.97 273.246 137.476 275.947 143.196L260.019 136.035Z" fill="#8E3855"/>
<path d="M360.343 243.876C359.576 244.109 358.38 244.966 357.102 246.01C355.917 246.974 354.66 248.098 353.609 249.022C353.078 249.487 352.598 249.902 352.209 250.221C350.218 251.849 347.623 251.849 343.667 251.547C339.713 251.248 300.187 233.077 300.187 233.077C300.187 233.077 295.208 230.221 293.689 220.62C292.171 211.02 289.725 192.389 289.725 192.389C289.725 192.389 289.319 160.677 290.449 150.519C294.195 151.718 297.278 153.475 298.794 157.905C301.642 166.219 301.073 173.677 301.073 181.992C301.073 190.306 306.072 209.335 306.01 219.792C306.01 219.792 313.479 221.592 321.072 230.505C328.666 239.421 332.654 242.162 337.211 240.876C341.768 239.591 345.344 237.448 346.865 235.774C348.383 234.103 349.903 230.675 351.991 231.618C354.078 232.562 353.004 236.631 350.691 237.532C348.383 238.429 347.527 240.189 347.623 241.515C347.716 242.847 347.4 244.259 348.572 244.515C349.742 244.771 352.67 244.558 353.106 242.372C353.539 240.189 353.292 237.287 353.106 236.073C352.917 234.86 353.001 232.987 354.142 233.028C355.28 233.074 355.344 235.941 355.565 238.901C355.788 241.857 355.724 243.1 355.724 243.1C355.724 243.1 358.699 241.987 360.563 240.828C362.432 239.671 363.19 239.286 364.424 240.485C365.658 241.688 362.177 243.315 360.343 243.876Z" fill="#A55B71"/>
<path d="M258.415 121.214C258.415 121.214 251.58 118.384 250.631 131.157C250.631 131.157 251.011 126.27 253.226 125.243C255.44 124.217 258.099 125.758 258.415 121.214Z" fill="#251333"/>
<path d="M258.982 122.58C258.883 122.405 256.481 118.22 251.833 122.586C251.677 122.733 251.522 122.882 251.372 123.035C246.88 127.544 243.767 134.806 235.441 131.243C233.577 130.443 232.421 129.12 231.75 127.533C229.327 121.795 233.29 112.64 233.29 112.64C233.29 112.64 231.392 124.041 237.911 123.27C244.428 122.5 251.074 112.384 258.415 120.443L258.982 122.58Z" fill="#251333"/>
<path d="M251.372 123.035C246.88 127.545 243.767 134.807 235.441 131.243C233.576 130.444 232.421 129.121 231.75 127.533C232.487 128.396 233.557 128.894 235.097 128.712C240.34 128.091 245.666 121.424 251.372 123.035Z" fill="#FCFF00"/>
<path d="M254.262 109.026C254.332 109.333 254.424 109.707 254.53 110.165C254.424 109.796 254.307 109.391 254.183 108.948C254.211 108.971 254.236 108.997 254.262 109.026Z" fill="#808080" stroke="black" stroke-width="1.1921"/>
<path d="M254.661 110.121C254.638 110.216 254.617 110.316 254.593 110.419C254.57 110.33 254.551 110.244 254.529 110.164C254.572 110.15 254.619 110.135 254.661 110.121Z" fill="#808080" stroke="black" stroke-width="1.1921"/>
<path d="M280.249 102.712L278.956 109.255L278.145 113.362L275.945 124.484C275.945 124.484 275.529 127.392 273.794 129.785C272.581 131.462 270.723 132.885 267.907 132.885C265.37 132.885 263.565 132.468 262.238 131.7C259.989 130.4 259.108 128.088 258.352 125.071C256.98 119.287 256.033 116.506 255.381 113.748C254.818 111.378 254.472 109.92 254.262 109.025C253.922 107.599 253.922 107.599 253.922 107.599L256.581 102.977L261.516 94.3976L268.731 89.4277L274.174 87.541L280.236 102.681L280.249 102.712Z" fill="#A55B71"/>
<path d="M280.249 102.713L278.956 109.256L278.145 113.363L275.945 124.485C275.945 124.485 275.529 127.392 273.794 129.785C275.132 126.584 275.425 123.265 275.425 123.265L278.145 103.038L280.237 102.681L280.249 102.713Z" fill="#FCFF00"/>
<path d="M262.238 131.701C259.989 130.401 259.108 128.088 258.352 125.071C256.98 119.287 256.033 116.506 255.381 113.748C254.819 111.378 254.472 109.92 254.262 109.026C253.922 107.599 253.922 107.599 253.922 107.599L255.725 104.467C255.725 104.467 260.081 128.08 262.238 131.701Z" fill="#FCFF00"/>
<path d="M278.298 114.199C278.221 113.952 278.175 113.664 278.145 113.362L278.956 109.255C279.699 108.306 281.009 107.225 282.538 108.542C284.923 110.598 281.687 117.8 278.298 114.199Z" fill="#8E3855"/>
<path d="M254.53 110.165C254.424 109.796 254.307 109.391 254.183 108.948C254.211 108.971 254.236 109 254.262 109.026C254.332 109.333 254.424 109.707 254.53 110.165Z" fill="#808080" stroke="black" stroke-width="1.1921"/>
<path d="M255.381 113.751C255.353 113.97 255.313 114.174 255.253 114.358C251.866 117.959 248.628 110.757 251.015 108.701C251.796 108.025 252.525 107.982 253.145 108.226C253.538 108.376 253.886 108.643 254.183 108.945C254.306 109.388 254.423 109.796 254.529 110.162C254.551 110.245 254.57 110.328 254.593 110.418C254.791 111.257 255.045 112.345 255.381 113.751Z" fill="#8E3855"/>
<path d="M254.53 110.165C254.424 109.796 254.307 109.391 254.183 108.948C254.211 108.971 254.236 109 254.262 109.026C254.332 109.333 254.424 109.707 254.53 110.165Z" fill="#808080" stroke="black" stroke-width="1.2905"/>
<path d="M278.931 109.96C278.88 110.032 278.829 110.098 278.778 110.164C277.143 108.041 274.418 103.345 273.473 95.2975C273.248 93.3792 273.123 91.2682 273.14 88.9558L275.251 83.6696C275.272 83.6264 275.293 83.5833 275.314 83.543C275.489 83.2266 276.022 82.3868 276.954 81.9842C277.793 81.6218 278.958 81.6132 280.481 82.6687C284.074 85.1565 283.845 103.385 278.931 109.96Z" fill="#251333"/>
<path d="M273.473 95.2977C271.069 100.667 265.833 106.615 254.661 110.121C254.618 110.135 254.571 110.15 254.529 110.164C254.423 109.707 254.332 109.333 254.261 109.025C254.236 108.996 254.21 108.971 254.183 108.945C254.147 108.91 254.113 108.873 254.075 108.838C253.803 108.582 253.491 108.358 253.144 108.226C249.562 96.6064 251.896 86.96 252.074 86.2697C252.076 86.2554 252.078 86.241 252.083 86.2266C252.622 83.71 253.569 81.3545 255.081 79.3557C261.832 70.4427 273.985 76.0999 275.25 83.6698C275.25 83.6698 276.251 89.0969 273.473 95.2977Z" fill="#251333"/>
<path d="M269.766 110.27C269.766 110.27 272.458 112.827 276.113 110.27" stroke="black" stroke-width="3.5764" stroke-linecap="round" stroke-linejoin="round"/>
<path d="M258.059 110.27C258.059 110.27 260.751 112.827 264.406 110.27" stroke="black" stroke-width="3.5764" stroke-linecap="round" stroke-linejoin="round"/>
<path d="M263.913 124.197C263.913 124.197 266.606 126.754 270.261 124.197" stroke="black" stroke-width="1.1921" stroke-linecap="round" stroke-linejoin="round"/>
<path d="M267.086 116.349L265.315 120.507H268.859L267.086 116.349Z" fill="#8E3855"/>
<path d="M199.483 248.325C194.967 250.183 191.535 251.469 190.507 251.549C186.551 251.848 183.958 251.848 181.964 250.218C181.574 249.898 181.096 249.484 180.565 249.018C179.514 248.095 178.257 246.971 177.072 246.007C175.794 244.966 174.598 244.109 173.834 243.873C171.997 243.318 168.518 241.684 169.75 240.485C170.982 239.286 171.742 239.671 173.611 240.827C174.715 241.512 176.203 242.182 177.237 242.613C177.237 242.613 177.242 242.613 177.252 242.619C177.339 242.648 177.819 242.812 178.45 243.068C179.374 243.453 180.62 244.043 181.414 244.727C181.964 245.202 182.68 244.926 183.651 244.506C184.415 244.169 185.339 243.744 186.466 243.522C187.53 243.309 188.772 243.278 190.236 243.672C195.213 245.012 195.888 245.814 195.888 245.814C195.888 245.814 197.844 246.637 199.483 248.325Z" fill="#A55B71"/>
<path d="M334.688 248.325C339.205 250.183 342.637 251.469 343.664 251.549C347.62 251.848 350.213 251.848 352.207 250.218C352.598 249.898 353.076 249.484 353.607 249.018C354.658 248.095 355.915 246.971 357.1 246.007C358.378 244.966 359.574 244.109 360.338 243.873C362.175 243.318 365.653 241.684 364.422 240.485C363.188 239.286 362.43 239.671 360.561 240.827C359.457 241.512 357.968 242.182 356.934 242.613C356.934 242.613 356.93 242.613 356.919 242.619C356.832 242.648 356.352 242.812 355.722 243.068C354.798 243.453 353.551 244.043 352.757 244.727C352.207 245.202 351.492 244.926 350.521 244.506C349.757 244.169 348.833 243.744 347.705 243.522C346.642 243.309 345.399 243.278 343.936 243.672C338.959 245.012 338.283 245.814 338.283 245.814C338.283 245.814 336.33 246.637 334.688 248.325Z" fill="#A55B71"/>
<path d="M253.922 206.074C253.922 206.074 260.314 208.389 268.351 208.472C276.389 208.556 282.844 206.074 282.844 206.074C282.844 206.074 277.782 216.387 268.098 215.847C260.067 215.395 254.427 207.704 253.922 206.074Z" fill="#251333"/>
<path d="M230.93 222.205C230.954 222.202 230.966 222.202 230.966 222.202C230.966 222.202 230.949 222.317 230.93 222.205Z" fill="#A55B71"/>
<path d="M236.601 181.267C233.305 200.631 231.177 203.125 230.967 213.286C230.818 220.476 230.88 221.955 230.931 222.205C230.224 222.288 219.353 223.683 212.919 233.419C206.876 242.559 197.099 244.27 194.294 239.985C195.135 240.31 196.029 240.609 196.963 240.873C201.52 242.159 205.506 239.418 213.102 230.502C220.695 221.586 228.164 219.789 228.164 219.789C228.1 209.332 233.101 190.301 233.101 181.986C233.101 173.671 232.53 166.216 235.38 157.902C236.86 153.573 239.837 151.798 243.466 150.602C238.939 155.434 233.817 164.781 236.601 181.267Z" fill="#FCFF00"/>
<path d="M297.603 181.267C300.898 200.631 303.026 203.125 303.236 213.286C303.385 220.476 303.323 221.955 303.272 222.205C303.98 222.288 314.85 223.683 321.284 233.419C327.328 242.559 337.104 244.27 339.91 239.985C339.069 240.31 338.175 240.609 337.24 240.873C332.683 242.159 328.697 239.418 321.102 230.502C313.508 221.586 306.039 219.789 306.039 219.789C306.103 209.332 301.102 190.301 301.102 181.986C301.102 173.671 301.673 166.216 298.824 157.902C297.344 153.573 294.366 151.798 290.737 150.602C295.265 155.434 300.387 164.781 297.603 181.267Z" fill="#FCFF00"/>
<path d="M284.857 149.437C281.589 150.133 276.809 150.245 274.996 145.698C272.165 138.597 273.851 129.866 273.893 129.65C273.817 133.84 274.138 139.368 275.947 143.196C276.807 145.017 278.002 146.455 279.65 147.185C281.379 147.95 283.129 148.497 284.834 148.968C284.842 149.121 284.849 149.276 284.857 149.437Z" fill="#FCFF00"/>
<path d="M259.592 145.698C257.7 150.444 252.582 150.116 249.318 149.345C249.325 149.216 249.331 149.089 249.337 148.968C251.043 148.497 252.792 147.95 254.521 147.185C258.029 145.632 259.486 140.869 260.019 136.035C260.242 134.021 260.303 131.997 260.284 130.185L260.694 129.647C260.694 129.647 262.459 138.508 259.592 145.698Z" fill="#FCFF00"/>
<path d="M278.931 109.96C279.733 106.903 281.46 99.5518 281.296 93.3538C279.455 88.2718 278.95 89.7127 279.525 86.0687C280.103 82.4247 277.627 82.0393 275.251 83.6701C275.272 83.6269 275.293 83.5838 275.314 83.5435C278.111 78.0157 276.954 81.9847 276.954 81.9847C277.793 81.6223 278.958 81.6137 280.481 82.6692C284.074 85.157 283.845 103.386 278.931 109.96Z" fill="#FCFF00"/>
<path d="M275.25 83.6698C275.25 83.6698 267.96 75.1393 258.984 78.7804C252.246 81.5156 253.187 99.8592 254.075 108.838C253.803 108.582 253.491 108.358 253.144 108.226C249.562 96.6064 251.896 86.96 252.074 86.2698C252.076 86.2554 252.078 86.241 252.083 86.2266C252.622 83.71 253.569 81.3545 255.081 79.3557C261.832 70.4427 273.985 76.0999 275.25 83.6698Z" fill="#FCFF00"/>
<path d="M276.954 81.9847L275.251 83.6701C275.272 83.6269 275.293 83.5838 275.314 83.5435C278.111 78.0157 276.954 81.9847 276.954 81.9847Z" fill="#FCFF00"/>
<path d="M246.367 288.838C246.19 290.109 246.093 291.478 246.095 292.948C230.404 287.083 215.355 281.075 209.825 277.503C204.491 274.058 197.984 269.462 193.077 264.541C193.077 264.541 188.267 259.916 186.857 253.37C186.369 251.101 187.917 249.953 190.149 249.421C193.871 254.27 201.07 262.781 210.229 269.37C217.773 274.797 233.693 282.798 246.367 288.838Z" fill="#FCFF00"/>
<path d="M204.034 283.428L154.477 324.455L139.507 351.202L101.923 374.927L84.7221 368.025L36.945 393.478L19.7467 414.186L-2.68406 426.668H-38.803L178.486 296.669L181.578 294.82C188.951 290.408 196.447 286.612 204.034 283.428Z" fill="#FCFF00"/>
<path d="M349.684 267.704C347.542 273.874 342.262 277.437 342.262 277.437C336.852 281.271 329.897 284.446 324.234 286.733C318.364 289.102 302.808 291.884 286.637 294.386C286.788 293.109 286.851 291.892 286.847 290.736C301.969 287.935 326.427 282.818 336.366 277.454C343.373 273.672 346.777 268.464 348.419 264.014C349.625 264.935 350.228 266.137 349.684 267.704Z" fill="#872983"/>
<path d="M212.352 287.776L130.597 343.572L128.048 348.844L133.414 355.048L212.352 287.776Z" fill="#FCFF00"/>
<path d="M98.4189 365.87L38.5377 402.106L101.923 367.165" fill="#FCFF00"/>
<path d="M230.931 395.054L233.247 426.668H128.207L216.567 335.232L170.926 405.589L199.483 412.311L241.561 326.471L218.88 391.603L230.931 395.054Z" fill="#220C44"/>
<path d="M268.383 336.958L294.696 426.668H280.317L268.383 336.958Z" fill="#220C44"/>
<path d="M299.416 336.958L360.864 426.668H341.366L299.416 336.958Z" fill="#220C44"/>
<path d="M420.686 426.668H392.193L353.609 381.249V365.868L327.167 330.055L420.686 426.668Z" fill="#220C44"/>
<path d="M60.0426 347.608L-62.2742 352.526V347.608H60.0426Z" fill="#E5889A"/>
<path d="M8.91678 326.471L-62.2742 329.333V326.471H8.91678Z" fill="#E5889A"/>
<path d="M86.9518 363.857L-62.2742 369.857V363.857H86.9518Z" fill="#E5889A"/>
<path d="M411.076 88.5764C411.076 88.5764 363.474 126.305 304.476 130.584C304.476 130.584 313.439 129.319 321.795 124.973C321.802 124.97 321.81 124.965 321.819 124.962C326.121 122.721 330.262 119.664 332.931 115.543C340.788 103.408 346.309 99.773 353.529 104.323C356.714 88.4528 362.023 85.942 374.127 90.3625C377.1 77.8113 380.71 67.6242 392.602 73.4368C401.421 77.7451 407.67 77.5726 410.049 81.9557C410.881 83.48 411.242 85.5623 411.076 88.5764Z" fill="url(#paint2_linear_189_166)"/>
<path d="M410.049 81.9557C404.797 79.836 395.036 76.8478 389.629 81.1792C381.984 87.3023 377.871 97.3025 377.871 97.3025C377.871 97.3025 362.023 90.8773 355.441 110.659C351.406 109.448 345.672 106.106 339.514 113.385C336.342 117.136 329.283 121.545 321.819 124.962C326.121 122.721 330.262 119.664 332.931 115.543C340.788 103.408 346.309 99.773 353.529 104.323C356.715 88.4528 362.023 85.942 374.127 90.3625C377.1 77.8113 380.71 67.6242 392.602 73.4368C401.421 77.7451 407.671 77.5726 410.049 81.9557Z" fill="#FFDDCC"/>
<path d="M446.595 149.197C446.595 149.197 398.992 186.926 339.994 191.205C339.994 191.205 348.958 189.94 357.314 185.594C357.32 185.591 357.329 185.585 357.337 185.583C361.639 183.342 365.78 180.285 368.45 176.163C376.307 164.029 381.828 160.394 389.048 164.944C392.233 149.074 397.542 146.563 409.646 150.983C412.619 138.432 416.229 128.245 428.12 134.058C436.939 138.366 443.189 138.193 445.567 142.577C446.4 144.101 446.761 146.183 446.595 149.197Z" fill="url(#paint3_linear_189_166)"/>
<path d="M445.567 142.577C440.316 140.457 430.554 137.469 425.148 141.8C417.503 147.923 413.39 157.923 413.39 157.923C413.39 157.923 397.542 151.498 390.959 171.28C386.924 170.069 381.191 166.727 375.032 174.006C371.86 177.757 364.801 182.166 357.337 185.583C361.639 183.342 365.78 180.285 368.45 176.163C376.307 164.029 381.828 160.394 389.048 164.944C392.233 149.074 397.542 146.563 409.646 150.983C412.619 138.432 416.229 128.245 428.12 134.058C436.939 138.366 443.189 138.193 445.567 142.577Z" fill="#FFDDCC"/>
<path d="M110.291 78.9789C110.291 78.9789 158.511 115.522 217.61 118.709C217.61 118.709 208.622 117.615 200.193 113.457C200.187 113.455 200.178 113.449 200.17 113.446C195.83 111.303 191.639 108.346 188.904 104.309C180.853 92.4231 175.272 88.9187 168.119 93.5573C164.684 77.8848 159.333 75.4911 147.291 80.0887C144.12 67.702 140.349 57.6698 128.541 63.6433C119.784 68.071 113.528 68.0117 111.217 72.3985C110.408 73.9242 110.079 75.9944 110.291 78.9789Z" fill="url(#paint4_linear_189_166)"/>
<path d="M111.213 72.3227C116.436 70.1239 126.158 66.9809 131.635 71.1778C139.378 77.1109 143.648 86.9541 143.648 86.9541C143.648 86.9541 159.407 80.2905 166.298 99.7903C170.317 98.5153 176.003 95.0953 182.277 102.202C185.509 105.864 192.64 110.108 200.161 113.36C195.822 111.216 191.631 108.26 188.897 104.221C180.849 92.3299 175.268 88.8255 168.113 93.4709C164.682 77.7883 159.331 75.3953 147.287 80.0019C144.12 67.6074 140.351 57.5695 128.541 63.553C119.782 67.9881 113.526 67.9316 111.213 72.3227Z" fill="#FFDDCC"/>
<path d="M76.9812 156.246C76.9812 156.246 127.398 189.956 186.673 190.397C186.673 190.397 177.621 189.731 168.943 186.03C168.936 186.027 168.927 186.022 168.919 186.02C164.45 184.111 160.082 181.397 157.103 177.555C148.335 166.243 142.543 163.054 135.673 167.937C131.291 152.694 125.796 150.586 114.036 155.652C110.117 143.625 105.74 133.94 94.2967 140.347C85.8104 145.096 79.5528 145.322 77.5077 149.738C76.7911 151.274 76.5857 153.323 76.9812 156.246Z" fill="url(#paint5_linear_189_166)"/>
<path d="M77.5104 149.509C82.5974 147.112 92.1264 143.584 97.8621 147.468C105.972 152.959 110.849 162.452 110.849 162.452C110.849 162.452 126.198 155.19 134.293 174.067C138.233 172.632 143.708 169.013 150.421 175.724C153.879 179.182 161.272 183.038 168.995 185.901C164.523 183.986 160.15 181.265 157.166 177.414C148.384 166.075 142.587 162.877 135.718 167.768C131.319 152.492 125.821 150.377 114.06 155.449C110.128 143.396 105.74 133.689 94.2979 140.105C85.8124 144.861 79.5544 145.085 77.5104 149.509Z" fill="#FFDDCC"/>
<path d="M240.533 254.917C234.266 259.341 225.908 255.317 220.846 249.421C217.99 246.096 214.87 244.124 212.524 242.996C217.346 244.02 229.295 249.467 240.533 254.917Z" fill="#FCFF00"/>
</g>
<rect width="452.022" height="454" fill="#101010" fill-opacity="0.45"/>
<rect x="76" y="194" width="273" height="65" fill="#041B3F" fill-opacity="0.5"/>
<path d="M342 290C328.176 290 317 278.824 317 265C317 251.176 328.176 240 342 240C355.824 240 367 251.176 367 265C367 278.824 355.824 290 342 290ZM342 242.941C329.794 242.941 319.941 252.794 319.941 265C319.941 277.206 329.794 287.059 342 287.059C354.206 287.059 364.059 277.206 364.059 265C364.059 252.794 354.206 242.941 342 242.941Z" fill="white" stroke="white" stroke-width="5"/>
<path d="M342.588 280.294L340.529 278.235L352.735 266.029L340.529 253.823L342.588 251.765L356.853 266.029L342.588 280.294Z" fill="white"/>
<path d="M328.764 264.749H353.764V267.69H328.764V264.749Z" fill="white"/>
<path d="M108.357 240C107.77 240 107.277 239.8 106.877 239.4C106.477 239 106.277 238.507 106.277 237.92V210.84C106.277 210.227 106.477 209.733 106.877 209.36C107.277 208.96 107.77 208.76 108.357 208.76H116.357C118.357 208.76 120.13 209.2 121.677 210.08C123.223 210.96 124.423 212.187 125.277 213.76C126.157 215.307 126.597 217.093 126.597 219.12C126.597 221.067 126.157 222.8 125.277 224.32C124.423 225.84 123.223 227.027 121.677 227.88C120.13 228.733 118.357 229.16 116.357 229.16H110.437V237.92C110.437 238.507 110.237 239 109.837 239.4C109.463 239.8 108.97 240 108.357 240ZM110.437 225.32H116.357C117.583 225.32 118.663 225.053 119.597 224.52C120.53 223.987 121.263 223.253 121.797 222.32C122.33 221.387 122.597 220.32 122.597 219.12C122.597 217.84 122.33 216.72 121.797 215.76C121.263 214.773 120.53 214 119.597 213.44C118.663 212.88 117.583 212.6 116.357 212.6H110.437V225.32ZM132.479 240C131.892 240 131.399 239.8 130.999 239.4C130.599 239 130.399 238.507 130.399 237.92V210.84C130.399 210.227 130.599 209.733 130.999 209.36C131.399 208.96 131.892 208.76 132.479 208.76H139.679C141.679 208.76 143.452 209.187 144.999 210.04C146.545 210.867 147.745 212.013 148.599 213.48C149.479 214.947 149.919 216.653 149.919 218.6C149.919 220.413 149.479 222.027 148.599 223.44C147.745 224.853 146.545 225.96 144.999 226.76C143.452 227.56 141.679 227.96 139.679 227.96H134.559V237.92C134.559 238.507 134.359 239 133.959 239.4C133.585 239.8 133.092 240 132.479 240ZM149.079 240C148.705 240 148.359 239.92 148.039 239.76C147.745 239.6 147.492 239.347 147.279 239L140.079 227.4L144.119 226.24L150.679 236.8C151.159 237.573 151.225 238.307 150.879 239C150.532 239.667 149.932 240 149.079 240ZM134.559 224.12H139.679C140.905 224.12 141.985 223.893 142.919 223.44C143.852 222.96 144.585 222.307 145.119 221.48C145.652 220.627 145.919 219.667 145.919 218.6C145.919 217.427 145.652 216.387 145.119 215.48C144.585 214.573 143.852 213.867 142.919 213.36C141.985 212.853 140.905 212.6 139.679 212.6H134.559V224.12ZM169.312 240.4C166.965 240.4 164.819 240.013 162.872 239.24C160.925 238.44 159.245 237.333 157.832 235.92C156.445 234.48 155.365 232.787 154.592 230.84C153.819 228.867 153.432 226.707 153.432 224.36C153.432 222.013 153.819 219.867 154.592 217.92C155.365 215.973 156.445 214.293 157.832 212.88C159.245 211.44 160.925 210.333 162.872 209.56C164.819 208.76 166.965 208.36 169.312 208.36C171.659 208.36 173.792 208.76 175.712 209.56C177.659 210.333 179.339 211.44 180.752 212.88C182.165 214.293 183.259 215.973 184.032 217.92C184.805 219.867 185.192 222.013 185.192 224.36C185.192 226.707 184.805 228.867 184.032 230.84C183.259 232.787 182.165 234.48 180.752 235.92C179.339 237.333 177.659 238.44 175.712 239.24C173.792 240.013 171.659 240.4 169.312 240.4ZM169.312 236.64C171.045 236.64 172.632 236.333 174.072 235.72C175.539 235.08 176.805 234.213 177.872 233.12C178.939 232 179.752 230.693 180.312 229.2C180.899 227.707 181.192 226.093 181.192 224.36C181.192 222.627 180.899 221.013 180.312 219.52C179.752 218.027 178.939 216.733 177.872 215.64C176.805 214.52 175.539 213.653 174.072 213.04C172.632 212.427 171.045 212.12 169.312 212.12C167.579 212.12 165.979 212.427 164.512 213.04C163.072 213.653 161.819 214.52 160.752 215.64C159.712 216.733 158.899 218.027 158.312 219.52C157.725 221.013 157.432 222.627 157.432 224.36C157.432 226.093 157.725 227.707 158.312 229.2C158.899 230.693 159.712 232 160.752 233.12C161.819 234.213 163.072 235.08 164.512 235.72C165.979 236.333 167.579 236.64 169.312 236.64ZM198.308 240.4C196.441 240.4 194.775 240 193.308 239.2C191.868 238.373 190.735 237.24 189.908 235.8C189.108 234.333 188.708 232.667 188.708 230.8C188.708 230.187 188.908 229.693 189.308 229.32C189.708 228.92 190.201 228.72 190.788 228.72C191.401 228.72 191.895 228.92 192.268 229.32C192.668 229.693 192.868 230.187 192.868 230.8C192.868 231.947 193.095 232.96 193.548 233.84C194.028 234.72 194.668 235.413 195.468 235.92C196.295 236.4 197.241 236.64 198.308 236.64C199.375 236.64 200.321 236.4 201.148 235.92C201.975 235.413 202.615 234.72 203.068 233.84C203.548 232.96 203.788 231.947 203.788 230.8V210.84C203.788 210.227 203.975 209.733 204.348 209.36C204.748 208.96 205.241 208.76 205.828 208.76C206.441 208.76 206.948 208.96 207.348 209.36C207.748 209.733 207.948 210.227 207.948 210.84V230.8C207.948 232.667 207.535 234.333 206.708 235.8C205.881 237.24 204.748 238.373 203.308 239.2C201.868 240 200.201 240.4 198.308 240.4ZM217.227 240C216.64 240 216.147 239.8 215.747 239.4C215.347 239 215.147 238.507 215.147 237.92V210.84C215.147 210.227 215.347 209.733 215.747 209.36C216.147 208.96 216.64 208.76 217.227 208.76H235.307C235.92 208.76 236.414 208.947 236.787 209.32C237.16 209.667 237.347 210.133 237.347 210.72C237.347 211.28 237.16 211.733 236.787 212.08C236.414 212.427 235.92 212.6 235.307 212.6H219.307V222.32H230.787C231.4 222.32 231.894 222.507 232.267 222.88C232.64 223.227 232.827 223.68 232.827 224.24C232.827 224.8 232.64 225.267 232.267 225.64C231.894 225.987 231.4 226.16 230.787 226.16H219.307V236.16H235.307C235.92 236.16 236.414 236.333 236.787 236.68C237.16 237.027 237.347 237.48 237.347 238.04C237.347 238.627 237.16 239.107 236.787 239.48C236.414 239.827 235.92 240 235.307 240H217.227ZM256.355 240.4C254.195 240.4 252.168 240 250.275 239.2C248.408 238.373 246.768 237.24 245.355 235.8C243.968 234.333 242.875 232.627 242.075 230.68C241.302 228.733 240.915 226.627 240.915 224.36C240.915 222.12 241.302 220.04 242.075 218.12C242.875 216.173 243.968 214.48 245.355 213.04C246.768 211.573 248.408 210.427 250.275 209.6C252.142 208.773 254.168 208.36 256.355 208.36C258.408 208.36 260.168 208.627 261.635 209.16C263.128 209.693 264.622 210.573 266.115 211.8C266.328 211.96 266.488 212.133 266.595 212.32C266.728 212.48 266.808 212.653 266.835 212.84C266.888 213 266.915 213.2 266.915 213.44C266.915 213.947 266.728 214.373 266.355 214.72C266.008 215.04 265.582 215.227 265.075 215.28C264.568 215.307 264.075 215.133 263.595 214.76C262.608 213.907 261.582 213.253 260.515 212.8C259.475 212.347 258.088 212.12 256.355 212.12C254.782 212.12 253.302 212.44 251.915 213.08C250.528 213.72 249.302 214.6 248.235 215.72C247.195 216.84 246.382 218.147 245.795 219.64C245.208 221.107 244.915 222.68 244.915 224.36C244.915 226.067 245.208 227.667 245.795 229.16C246.382 230.627 247.195 231.92 248.235 233.04C249.302 234.16 250.528 235.04 251.915 235.68C253.302 236.293 254.782 236.6 256.355 236.6C257.715 236.6 258.995 236.373 260.195 235.92C261.422 235.44 262.595 234.787 263.715 233.96C264.195 233.613 264.662 233.467 265.115 233.52C265.595 233.547 265.995 233.733 266.315 234.08C266.635 234.4 266.795 234.853 266.795 235.44C266.795 235.707 266.742 235.973 266.635 236.24C266.528 236.48 266.368 236.707 266.155 236.92C264.715 238.067 263.168 238.933 261.515 239.52C259.888 240.107 258.168 240.4 256.355 240.4ZM281.889 240C281.302 240 280.809 239.8 280.409 239.4C280.009 239 279.809 238.507 279.809 237.92V208.76H283.969V237.92C283.969 238.507 283.769 239 283.369 239.4C282.969 239.8 282.475 240 281.889 240ZM271.169 212.6C270.609 212.6 270.142 212.427 269.769 212.08C269.422 211.707 269.249 211.24 269.249 210.68C269.249 210.12 269.422 209.667 269.769 209.32C270.142 208.947 270.609 208.76 271.169 208.76H292.569C293.129 208.76 293.582 208.947 293.929 209.32C294.302 209.667 294.489 210.12 294.489 210.68C294.489 211.24 294.302 211.707 293.929 212.08C293.582 212.427 293.129 212.6 292.569 212.6H271.169ZM307.003 240.4C305.296 240.4 303.67 240.133 302.123 239.6C300.576 239.067 299.23 238.32 298.083 237.36C296.936 236.4 296.096 235.293 295.563 234.04C295.296 233.48 295.296 232.96 295.563 232.48C295.856 232 296.336 231.693 297.003 231.56C297.483 231.453 297.95 231.533 298.403 231.8C298.883 232.04 299.243 232.413 299.483 232.92C299.803 233.587 300.323 234.2 301.043 234.76C301.79 235.32 302.683 235.773 303.723 236.12C304.763 236.467 305.856 236.64 307.003 236.64C308.283 236.64 309.456 236.44 310.523 236.04C311.616 235.64 312.496 235.067 313.163 234.32C313.83 233.547 314.163 232.6 314.163 231.48C314.163 230.067 313.603 228.8 312.483 227.68C311.39 226.56 309.576 225.867 307.043 225.6C303.736 225.28 301.136 224.307 299.243 222.68C297.35 221.053 296.403 219.04 296.403 216.64C296.403 214.88 296.896 213.387 297.883 212.16C298.87 210.933 300.203 210 301.883 209.36C303.59 208.72 305.483 208.4 307.563 208.4C309.19 208.4 310.603 208.627 311.803 209.08C313.03 209.533 314.096 210.16 315.003 210.96C315.91 211.76 316.696 212.707 317.363 213.8C317.736 214.387 317.883 214.947 317.803 215.48C317.75 215.987 317.496 216.387 317.043 216.68C316.536 217 315.99 217.067 315.403 216.88C314.816 216.693 314.376 216.347 314.083 215.84C313.656 215.067 313.136 214.413 312.523 213.88C311.91 213.347 311.19 212.933 310.363 212.64C309.536 212.32 308.563 212.16 307.443 212.16C305.47 212.133 303.816 212.507 302.483 213.28C301.15 214.027 300.483 215.187 300.483 216.76C300.483 217.56 300.683 218.333 301.083 219.08C301.51 219.8 302.27 220.427 303.363 220.96C304.483 221.493 306.083 221.867 308.163 222.08C311.336 222.4 313.803 223.373 315.563 225C317.35 226.6 318.243 228.72 318.243 231.36C318.243 232.88 317.923 234.2 317.283 235.32C316.67 236.44 315.83 237.387 314.763 238.16C313.723 238.907 312.523 239.467 311.163 239.84C309.83 240.213 308.443 240.4 307.003 240.4Z" fill="white"/>
</g>
<defs>
<linearGradient id="paint0_linear_189_166" x1="186.177" y1="297.248" x2="186.177" y2="119.47" gradientUnits="userSpaceOnUse">
<stop stop-color="#FCCF31"/>
<stop offset="1" stop-color="#F55555"/>
</linearGradient>
<linearGradient id="paint1_linear_189_166" x1="186.178" y1="415.338" x2="186.178" y2="304.422" gradientUnits="userSpaceOnUse">
<stop stop-color="#1C0045"/>
<stop offset="1" stop-color="#F55555"/>
</linearGradient>
<linearGradient id="paint2_linear_189_166" x1="304.476" y1="101.173" x2="411.116" y2="101.173" gradientUnits="userSpaceOnUse">
<stop stop-color="#FCCF31"/>
<stop offset="1" stop-color="#F55555"/>
</linearGradient>
<linearGradient id="paint3_linear_189_166" x1="339.994" y1="161.793" x2="446.634" y2="161.793" gradientUnits="userSpaceOnUse">
<stop stop-color="#FCCF31"/>
<stop offset="1" stop-color="#F55555"/>
</linearGradient>
<linearGradient id="paint4_linear_189_166" x1="217.151" y1="89.5571" x2="110.444" y2="91.2348" gradientUnits="userSpaceOnUse">
<stop stop-color="#FCCF31"/>
<stop offset="1" stop-color="#F55555"/>
</linearGradient>
<linearGradient id="paint5_linear_189_166" x1="184.448" y1="161.775" x2="78.0123" y2="170.042" gradientUnits="userSpaceOnUse">
<stop stop-color="#FCCF31"/>
<stop offset="1" stop-color="#F55555"/>
</linearGradient>
<clipPath id="clip0_189_166">
<rect width="425" height="415" fill="white"/>
</clipPath>
</defs>
</svg>
