<svg width="599" height="600" viewBox="0 0 599 600" fill="none" xmlns="http://www.w3.org/2000/svg">
<mask id="mask0_137_62" style="mask-type:alpha" maskUnits="userSpaceOnUse" x="1" y="0" width="598" height="600">
<rect x="1.61426" width="597.386" height="600" fill="#D9D9D9"/>
</mask>
<g mask="url(#mask0_137_62)">
<path d="M642.22 -43H-3.6145V425.181H642.22V-43Z" fill="url(#paint0_linear_137_62)"/>
<path d="M508.547 368.716C508.547 444.225 468.563 505.435 419.242 505.435C369.922 505.435 329.941 444.225 329.941 368.716C329.941 367.677 329.946 366.642 329.966 365.611L426.137 360.772L330.299 356.344C331.155 341.766 333.501 327.848 337.111 314.952L426.134 311.271L340.034 305.503C354.938 261.812 384.815 231.993 419.24 231.993C438.99 231.993 457.242 241.809 472.03 258.428C448.09 259.856 369.408 261.669 369.408 261.669L477.069 264.525C483.417 272.786 489.001 282.39 493.629 293.038L429.137 297.479L496.671 300.555C498.636 305.765 500.38 311.195 501.884 316.811L470.846 320.018L503.436 323.031C505.45 331.727 506.905 340.824 507.733 350.226C499.149 349.545 479.184 351.269 479.184 351.269L508.122 355.389C508.404 359.779 508.547 364.225 508.547 368.716Z" fill="#FCFF00"/>
<path d="M642.22 425.181H-3.6145V616.172H642.22V425.181Z" fill="url(#paint1_linear_137_62)"/>
<path d="M642.993 446.342H428.584L642.993 457.328V446.342Z" fill="#E5889A"/>
<path d="M642.99 474.974H346.373L642.99 479.723V474.974Z" fill="#E5889A"/>
<path d="M364.633 463.987H122.87L364.633 474.974" fill="#E5889A"/>
<path d="M404.78 494.525H163.017L404.78 505.512" fill="#E5889A"/>
<path d="M485.514 446.342H243.751L485.514 457.328" fill="#E5889A"/>
<path d="M642.22 499.485V616.171H26.8916L223.526 483.192H223.529L309.306 425.18L313.325 422.463C322.907 415.981 332.65 410.404 342.512 405.726C351.857 401.294 361.307 397.664 370.823 394.85C405.055 384.713 440.149 385.055 474.325 395.868C492.781 401.704 510.97 410.598 528.611 422.548L532.497 425.18L642.22 499.485Z" fill="#0C011C"/>
<path d="M642.22 531.274L586.099 488.821L625.426 529.385L607.202 542.057L551.309 501.835L592.723 520.677L551.309 491.356V457.13L471.013 399.959L474.325 395.869C492.781 401.704 510.97 410.599 528.611 422.549L532.497 425.181L642.22 499.486V531.274V531.274Z" fill="#220C44"/>
<path d="M370.823 394.85L346.373 438.115L299.481 477.411L289.277 510.949L220.973 561.705H196.28C196.28 561.705 160.822 589.965 128.437 616.171H64.8219C64.1043 613.446 63.6599 611.772 63.6599 611.772L223.526 483.192H223.529L309.306 425.18L313.325 422.463C322.907 415.982 332.65 410.404 342.511 405.726C351.857 401.294 361.307 397.664 370.823 394.85Z" fill="#220C44"/>
<path d="M464.083 367.512C463.721 368.086 463.379 368.623 463.059 369.134C461.508 371.589 460.398 373.347 459.603 374.602C457.611 377.754 457.611 377.754 457.611 377.754L424.461 387.494L391.311 377.754C391.311 377.754 391.311 377.754 384.838 367.512C385.893 367.144 386.87 366.662 387.775 366.075C398.934 358.811 399.201 335.267 397.783 312.441C396.245 287.756 395.039 271.97 395.039 271.97C395.039 271.97 395.152 261.943 395.125 249.702C395.097 235.559 394.887 218.459 394.098 210.456C396.378 209.627 398.848 208.973 401.393 208.182C400.755 221.966 400.791 263.494 424.461 263.494C448.13 263.494 448.166 221.966 447.528 208.182C450.073 208.973 452.543 209.627 454.823 210.456C453.807 220.783 453.747 246.279 453.805 261.001C453.81 262.509 453.818 263.903 453.827 265.158C453.852 269.35 453.882 271.97 453.882 271.97C453.882 271.97 452.676 287.756 451.138 312.441C449.604 337.122 450.043 362.64 464.083 367.512Z" fill="#381F49"/>
<path d="M386.862 367.512C387.223 368.087 387.566 368.623 387.886 369.135C389.437 371.59 390.546 373.347 391.341 374.602C391.965 374.492 392.616 374.37 393.295 374.226C405.439 371.691 406.002 350.335 406.002 350.335L419.239 353.944C419.239 353.944 419.976 348.595 415.613 336.763C411.252 324.932 405.205 319.599 409.375 315.07C413.479 310.608 415.546 302.377 415.61 302.119C415.566 302.169 414.644 303.023 407.711 295.244C406.634 293.63 400.03 273.922 397.118 265.159C397.093 269.35 397.063 271.97 397.063 271.97C397.063 271.97 398.269 287.756 399.806 312.442C401.341 337.122 400.902 362.64 386.862 367.512Z" fill="#4D2D66"/>
<path d="M464.083 367.512C463.721 368.087 463.379 368.623 463.059 369.135C449.51 367.419 447.321 346.199 447.321 346.199L439.571 348.312L444.942 341.128C444.942 341.128 446.471 300.564 446.747 290.423C446.951 282.94 451.458 268.205 453.804 261.001C453.832 267.55 453.882 271.97 453.882 271.97C453.882 271.97 452.676 287.757 451.138 312.442C449.604 337.123 450.043 362.64 464.083 367.512Z" fill="#FCFF00"/>
<path d="M400.38 352.115C404.382 361.833 404.382 361.833 404.382 361.833C404.382 361.833 400.739 357.384 399.041 355.174C396.025 361.22 390.499 366.798 387.775 366.076C398.934 358.812 399.201 335.268 397.783 312.442C396.245 287.757 395.039 271.97 395.039 271.97C395.039 271.97 395.152 261.943 395.125 249.702C396.499 262.15 398.075 276.441 398.448 279.859C399.138 286.197 400.104 309.437 403.14 320.635C406.176 331.832 406.176 342.819 400.38 352.115Z" fill="#FCFF00"/>
<path d="M531.815 379.486L468.852 404.603C467.974 405.253 434.634 415.703 423.227 415.58C415.954 415.496 411.185 411.059 408.676 407.856L400.195 408.566L379.302 399.959C379.302 399.959 362.85 381.367 320.244 359.111C326.175 340.388 340.806 343.836 353.002 346.207C353.176 346.241 353.355 346.279 353.546 346.325C359.814 347.829 375.344 355.832 389.95 363.84C394.727 366.455 399.406 369.071 403.628 371.462C409.438 374.754 415.582 376.44 421.775 376.44H435.059C439.87 376.44 444.658 375.422 449.287 373.419L452.403 372.071C452.403 372.071 493.639 351.898 512.325 357.273C531.012 362.64 531.815 379.486 531.815 379.486Z" fill="#331031"/>
<path d="M450.068 421.54C450.951 412.527 449.218 405.619 447.557 401.326C456.811 394.358 487.712 372.326 508.21 372.326C510.365 372.326 512.372 372.571 514.177 373.053C514.351 373.061 529.291 373.683 531.62 379.459C531.998 380.397 532.015 381.398 531.67 382.522C528.943 391.404 522.167 396.652 522.098 396.707C516.401 401.271 508.527 405.859 498.693 410.347C492.274 413.271 476.368 416.934 450.068 421.54Z" fill="#808080"/>
<path d="M508.209 372.075V372.578C510.354 372.578 512.349 372.819 514.146 373.301L514.171 373.309H514.196C514.345 373.313 529.196 373.93 531.479 379.588C531.827 380.446 531.838 381.371 531.52 382.411C528.818 391.208 522.092 396.422 522.018 396.481C516.332 401.036 508.469 405.617 498.646 410.1C492.254 413.016 476.426 416.662 450.261 421.251C451.064 412.487 449.416 405.723 447.785 401.429C452.742 397.703 462.355 390.798 473.196 384.705C487.507 376.66 499.286 372.578 508.207 372.578L508.209 372.075ZM508.207 372.075C487.189 372.079 455.855 394.779 447.322 401.218C449.187 405.934 450.805 412.868 449.872 421.826C470.889 418.15 491.109 414.064 498.74 410.582C506.101 407.223 515.14 402.558 522.169 396.925C522.169 396.925 529.033 391.69 531.816 382.626C534.603 373.558 514.204 372.802 514.204 372.802C512.33 372.303 510.324 372.075 508.207 372.075Z" fill="black"/>
<path d="M449.872 421.826C423.757 426.393 396.414 430.344 390.488 431.739C379.796 434.257 376.997 434.004 374.858 434.76C372.719 435.516 369.43 426.702 374.858 424.686C380.287 422.671 380.122 429.474 392.133 418.64C404.142 407.81 407.432 406.8 410.393 401.011C413.355 395.218 420.594 393.959 424.458 402.27C428.322 410.582 439.676 407.058 445.928 402.27C446.284 402 446.75 401.641 447.319 401.218C449.187 405.934 450.805 412.868 449.872 421.826Z" fill="#8E3855"/>
<path d="M531.815 382.626C529.031 391.69 522.169 396.925 522.169 396.925C515.137 402.558 506.098 407.223 498.737 410.582C491.109 414.064 470.889 418.15 449.872 421.826C450.068 419.95 450.151 418.162 450.145 416.464C450.117 410.058 448.795 404.95 447.322 401.218C456.714 394.128 493.725 367.343 514.201 372.802C514.201 372.802 525.561 373.225 530.17 377.205C531.738 378.557 532.522 380.324 531.815 382.626Z" fill="#4C1847"/>
<path d="M397.016 419.386C371.497 408.602 356.154 401.212 350.11 396.801C340.847 390.036 333.533 383.634 328.369 377.782C328.306 377.71 322.14 370.92 320.346 361.497C320.134 360.386 320.222 359.456 320.614 358.657C321.649 356.545 324.85 355.429 329.874 355.429C334.251 355.429 338.521 356.283 338.562 356.291C338.744 356.291 338.901 356.287 339.062 356.287C359.284 356.287 391.808 389.537 401.545 400.016C399.464 403.857 397.054 410.276 397.016 419.386Z" fill="#808080"/>
<path d="M329.871 355.677C334.234 355.677 338.496 356.526 338.537 356.534L338.562 356.539H338.587C338.744 356.534 338.899 356.534 339.059 356.534C347.863 356.534 359.916 362.75 374.886 375.008C386.141 384.224 396.157 394.534 401.302 400.061C399.259 403.914 396.947 410.21 396.853 419.058C371.466 408.326 356.201 400.969 350.179 396.575C340.927 389.818 333.622 383.425 328.461 377.573C328.4 377.505 322.281 370.762 320.501 361.427C320.305 360.396 320.382 359.539 320.741 358.808C321.746 356.758 324.9 355.677 329.871 355.677ZM329.871 355.174C324.649 355.174 319.195 356.37 320.189 361.567C322.022 371.184 328.273 377.983 328.273 377.983C334.651 385.213 343.108 391.965 350.038 397.027C357.225 402.275 376.785 411.102 397.178 419.718C397.162 410.65 399.461 404.181 401.782 399.964C393.284 390.807 359.877 356.036 339.059 356.032C338.899 356.032 338.741 356.032 338.581 356.036C338.581 356.036 334.309 355.174 329.871 355.174Z" fill="black"/>
<path d="M397.178 419.713C422.518 430.416 449.129 440.798 454.843 443.582C465.151 448.606 467.941 449.02 469.978 450.271C472.015 451.526 476.158 443.595 470.997 440.316C465.838 437.037 465.311 443.798 454.542 430.251C443.772 416.704 440.623 414.929 438.283 408.507C435.942 402.08 428.918 399.122 424.259 406.415C419.6 413.708 408.743 407.535 403.049 401.328C402.726 400.973 402.301 400.512 401.779 399.958C399.461 404.176 397.162 410.645 397.178 419.713Z" fill="#A55B71"/>
<path d="M401.782 399.96C400.013 403.171 398.258 407.692 397.532 413.676C397.303 415.543 397.176 417.555 397.179 419.714C376.785 411.098 357.225 402.271 350.038 397.023C343.105 391.961 334.649 385.209 328.27 377.979C328.27 377.979 322.019 371.184 320.186 361.567C319.551 358.233 321.563 356.547 324.464 355.766C329.94 354.287 338.582 356.036 338.582 356.036C359.364 355.495 393.218 390.731 401.782 399.96Z" fill="#4C1847"/>
<path d="M312.006 355.173C309.141 354.447 305.751 353.703 303.626 353.576C299.348 353.323 298.747 350.555 300.171 350.221C301.595 349.883 303.789 350.555 305.326 350.804C305.859 350.889 306.657 350.851 307.465 350.749C309.006 352.165 310.642 353.817 312.006 355.173Z" fill="#A55B71"/>
<path d="M545.295 353.576C543.17 353.703 539.781 354.446 536.916 355.173C538.282 353.817 539.916 352.165 541.456 350.749C542.265 350.851 543.063 350.889 543.595 350.804C545.133 350.551 547.327 349.883 548.751 350.221C550.175 350.555 549.573 353.323 545.295 353.576Z" fill="#A55B71"/>
<path d="M395.039 271.97C395.039 271.97 391.86 299.343 389.886 313.448C387.913 327.552 381.441 331.748 381.441 331.748C381.441 331.748 353.308 346.372 336.597 354.156C330.729 356.885 326.266 358.774 324.93 358.888C319.788 359.328 316.418 359.328 313.827 356.936C313.319 356.467 312.698 355.859 312.005 355.174C310.642 353.818 309.005 352.165 307.465 350.75C305.804 349.216 304.25 347.957 303.256 347.615C300.869 346.799 296.348 344.403 297.949 342.637C299.552 340.875 300.54 341.445 302.966 343.144C304.401 344.15 306.336 345.134 307.683 345.768C307.683 345.768 307.689 345.768 307.702 345.777C308.621 346.216 309.259 346.482 309.259 346.482C309.259 346.482 309.259 346.465 309.259 346.436C309.248 346.132 309.207 344.26 309.466 340.313C309.753 335.969 309.839 331.748 311.318 331.689C312.8 331.621 312.908 334.372 312.659 336.155C312.416 337.938 312.099 342.202 312.659 345.409C313.002 347.353 314.525 348.236 316.015 348.548C316.995 348.751 317.956 348.709 318.557 348.561C319.267 348.384 319.557 347.834 319.675 347.103C319.81 346.267 319.722 345.193 319.788 344.15C319.913 342.202 318.8 339.616 315.8 338.298C312.8 336.979 311.398 330.992 314.114 329.606C316.827 328.224 318.8 333.261 320.774 335.716C322.344 337.668 325.604 340.055 329.851 341.902C330.944 342.379 332.106 342.819 333.321 343.207C339.243 345.096 344.424 341.069 354.296 327.97C364.166 314.872 373.873 312.231 373.873 312.231C373.79 296.867 380.29 268.907 380.29 256.691C380.29 244.475 379.547 233.523 383.251 221.307C385.175 214.948 389.044 212.341 393.761 210.583C393.872 210.537 393.985 210.499 394.098 210.456C395.566 225.381 395.039 271.97 395.039 271.97Z" fill="#A55B71"/>
<path d="M424.461 263.494C401.1 263.494 400.761 223.039 401.368 208.736C401.376 208.546 401.385 208.36 401.393 208.183C403.609 207.49 405.883 206.687 408.13 205.563C412.69 203.281 414.583 196.284 415.276 189.181C415.565 186.223 415.646 183.248 415.621 180.586C415.579 175.169 415.11 171.058 415.11 171.058L421.753 168.185C425.739 169.651 430.094 171.295 433.663 172.647C433.533 174.193 433.359 176.754 433.309 179.796C433.309 179.796 433.309 179.796 433.309 179.8C433.21 185.957 433.627 194.078 435.978 199.702C437.096 202.377 438.65 204.49 440.792 205.563C443.038 206.687 445.313 207.49 447.529 208.183C447.54 208.407 447.548 208.635 447.559 208.871C448.158 223.293 447.75 263.494 424.461 263.494Z" fill="#A55B71"/>
<path d="M415.275 189.181C416.153 180.202 415.11 171.058 415.11 171.058L421.753 168.185C425.739 169.651 430.094 171.295 433.662 172.647C433.268 177.333 432.467 191.298 435.978 199.702L415.275 189.181Z" fill="#8E3855"/>
<path d="M545.668 347.619C544.672 347.961 543.118 349.22 541.456 350.754C539.916 352.17 538.282 353.822 536.916 355.178C536.226 355.863 535.602 356.471 535.097 356.94C532.509 359.332 529.136 359.332 523.994 358.888C518.855 358.449 467.483 331.752 467.483 331.752C467.483 331.752 461.011 327.556 459.038 313.452C457.065 299.347 453.885 271.975 453.885 271.975C453.885 271.975 453.358 225.385 454.826 210.46C459.695 212.222 463.702 214.804 465.673 221.311C469.374 233.527 468.634 244.484 468.634 256.7C468.634 268.915 475.131 296.871 475.051 312.235C475.051 312.235 484.758 314.88 494.628 327.975C504.498 341.074 509.681 345.1 515.604 343.212C521.527 341.323 526.174 338.175 528.15 335.716C530.124 333.261 532.1 328.224 534.813 329.61C537.526 330.996 536.13 336.975 533.124 338.297C530.124 339.616 529.012 342.202 529.136 344.15C529.257 346.106 528.846 348.181 530.37 348.557C531.89 348.933 535.696 348.62 536.262 345.409C536.825 342.202 536.505 337.938 536.262 336.155C536.016 334.372 536.127 331.621 537.609 331.68C539.088 331.748 539.171 335.961 539.458 340.309C539.748 344.653 539.665 346.478 539.665 346.478C539.665 346.478 543.532 344.843 545.955 343.14C548.384 341.441 549.369 340.875 550.973 342.637C552.576 344.403 548.053 346.795 545.668 347.619Z" fill="#A55B71"/>
<path d="M413.192 167.406C413.192 167.406 404.307 163.248 403.074 182.014C403.074 182.014 403.568 174.835 406.446 173.326C409.325 171.818 412.781 174.082 413.192 167.406Z" fill="#251333"/>
<path d="M413.929 169.413C413.799 169.156 410.677 163.008 404.636 169.422C404.434 169.637 404.233 169.857 404.037 170.081C398.199 176.707 394.153 187.376 383.331 182.141C380.908 180.966 379.407 179.022 378.535 176.69C375.385 168.26 380.536 154.81 380.536 154.81C380.536 154.81 378.068 171.56 386.541 170.428C395.012 169.295 403.65 154.434 413.192 166.274L413.929 169.413Z" fill="#251333"/>
<path d="M404.037 170.082C398.199 176.707 394.153 187.377 383.332 182.141C380.908 180.967 379.407 179.023 378.535 176.69C379.492 177.958 380.883 178.689 382.884 178.423C389.699 177.51 396.621 167.716 404.037 170.082Z" fill="#FCFF00"/>
<path d="M407.794 149.5C407.885 149.952 408.003 150.501 408.141 151.173C408.003 150.632 407.851 150.036 407.691 149.385C407.727 149.419 407.76 149.457 407.794 149.5Z" fill="#808080" stroke="black" stroke-width="1.1921"/>
<path d="M408.313 151.109C408.282 151.248 408.255 151.396 408.224 151.548C408.194 151.417 408.169 151.29 408.141 151.172C408.196 151.151 408.257 151.13 408.313 151.109Z" fill="#808080" stroke="black" stroke-width="1.1921"/>
<path d="M441.57 140.224L439.889 149.837L438.835 155.871L435.975 172.211C435.975 172.211 435.434 176.483 433.179 179.998C431.603 182.462 429.188 184.553 425.529 184.553C422.231 184.553 419.885 183.941 418.16 182.812C415.237 180.903 414.091 177.505 413.109 173.073C411.326 164.575 410.095 160.489 409.248 156.437C408.516 152.955 408.066 150.813 407.793 149.499C407.352 147.403 407.352 147.403 407.352 147.403L410.807 140.613L417.221 128.008L426.6 120.707L433.673 117.935L441.553 140.178L441.57 140.224Z" fill="#A55B71"/>
<path d="M441.57 140.225L439.889 149.838L438.835 155.872L435.975 172.212C435.975 172.212 435.434 176.484 433.179 179.999C434.918 175.296 435.299 170.42 435.299 170.42L438.835 140.702L441.553 140.178L441.57 140.225Z" fill="#FCFF00"/>
<path d="M418.16 182.813C415.237 180.903 414.091 177.506 413.109 173.073C411.326 164.576 410.095 160.49 409.248 156.438C408.516 152.956 408.066 150.813 407.793 149.499C407.352 147.404 407.352 147.404 407.352 147.404L409.695 142.802C409.695 142.802 415.355 177.493 418.16 182.813Z" fill="#FCFF00"/>
<path d="M439.033 157.101C438.934 156.737 438.873 156.315 438.835 155.871L439.889 149.837C440.855 148.443 442.558 146.854 444.545 148.789C447.645 151.81 443.438 162.391 439.033 157.101Z" fill="#8E3855"/>
<path d="M408.141 151.173C408.003 150.632 407.851 150.036 407.691 149.385C407.727 149.419 407.76 149.462 407.794 149.5C407.885 149.952 408.003 150.501 408.141 151.173Z" fill="#808080" stroke="black" stroke-width="1.1921"/>
<path d="M409.248 156.442C409.212 156.763 409.159 157.063 409.082 157.334C404.68 162.624 400.471 152.043 403.573 149.022C404.589 148.029 405.535 147.966 406.341 148.325C406.852 148.545 407.305 148.938 407.691 149.381C407.851 150.032 408.003 150.632 408.141 151.169C408.169 151.291 408.193 151.414 408.224 151.545C408.48 152.778 408.812 154.376 409.248 156.442Z" fill="#8E3855"/>
<path d="M408.141 151.173C408.003 150.632 407.851 150.036 407.691 149.385C407.727 149.419 407.76 149.462 407.794 149.5C407.885 149.952 408.003 150.501 408.141 151.173Z" fill="#808080" stroke="black" stroke-width="1.2905"/>
<path d="M439.856 150.872C439.79 150.978 439.724 151.075 439.657 151.172C437.532 148.054 433.991 141.153 432.763 129.331C432.47 126.512 432.308 123.411 432.33 120.013L435.073 112.247C435.101 112.184 435.128 112.12 435.156 112.061C435.382 111.596 436.075 110.363 437.287 109.771C438.377 109.239 439.892 109.226 441.871 110.777C446.541 114.432 446.243 141.213 439.856 150.872Z" fill="#251333"/>
<path d="M432.763 129.331C429.638 137.22 422.832 145.958 408.312 151.109C408.257 151.13 408.196 151.151 408.141 151.172C408.003 150.5 407.884 149.951 407.793 149.499C407.76 149.457 407.727 149.419 407.691 149.381C407.644 149.33 407.6 149.275 407.55 149.224C407.197 148.848 406.791 148.519 406.341 148.324C401.685 131.253 404.718 117.081 404.95 116.067C404.953 116.046 404.956 116.025 404.961 116.004C405.662 112.306 406.893 108.846 408.858 105.909C417.632 92.8144 433.428 101.126 435.073 112.247C435.073 112.247 436.373 120.221 432.763 129.331Z" fill="#251333"/>
<path d="M427.944 151.328C427.944 151.328 431.443 155.085 436.193 151.328" stroke="black" stroke-width="3.5764" stroke-linecap="round" stroke-linejoin="round"/>
<path d="M412.728 151.328C412.728 151.328 416.228 155.085 420.978 151.328" stroke="black" stroke-width="3.5764" stroke-linecap="round" stroke-linejoin="round"/>
<path d="M420.337 171.789C420.337 171.789 423.837 175.545 428.587 171.789" stroke="black" stroke-width="1.1921" stroke-linecap="round" stroke-linejoin="round"/>
<path d="M424.461 160.258L422.159 166.368H426.765L424.461 160.258Z" fill="#8E3855"/>
<path d="M336.597 354.155C330.726 356.885 326.266 358.773 324.931 358.892C319.789 359.331 316.419 359.331 313.827 356.935C313.319 356.466 312.698 355.858 312.008 355.173C310.642 353.817 309.008 352.165 307.468 350.749C305.807 349.22 304.253 347.96 303.259 347.614C300.872 346.798 296.351 344.398 297.952 342.636C299.553 340.874 300.541 341.441 302.969 343.139C304.405 344.145 306.339 345.129 307.683 345.763C307.683 345.763 307.689 345.763 307.703 345.772C307.816 345.814 308.44 346.055 309.259 346.431C310.46 346.997 312.08 347.863 313.112 348.869C313.827 349.566 314.757 349.16 316.019 348.544C317.012 348.049 318.213 347.424 319.678 347.098C321.061 346.786 322.676 346.739 324.577 347.318C331.047 349.287 331.924 350.466 331.924 350.466C331.924 350.466 334.466 351.675 336.597 354.155Z" fill="#A55B71"/>
<path d="M512.325 354.155C518.195 356.885 522.655 358.773 523.991 358.892C529.133 359.331 532.503 359.331 535.095 356.935C535.602 356.466 536.223 355.858 536.913 355.173C538.28 353.817 539.914 352.165 541.454 350.749C543.115 349.22 544.669 347.96 545.663 347.614C548.05 346.798 552.571 344.398 550.97 342.636C549.366 340.874 548.381 341.441 545.952 343.139C544.517 344.145 542.582 345.129 541.238 345.763C541.238 345.763 541.233 345.763 541.219 345.772C541.106 345.814 540.482 346.055 539.662 346.431C538.462 346.997 536.842 347.863 535.809 348.869C535.095 349.566 534.164 349.16 532.903 348.544C531.91 348.049 530.709 347.424 529.243 347.098C527.861 346.786 526.246 346.739 524.344 347.318C517.875 349.287 516.997 350.466 516.997 350.466C516.997 350.466 514.458 351.675 512.325 354.155Z" fill="#A55B71"/>
<path d="M407.352 292.08C407.352 292.08 415.659 295.482 426.106 295.604C436.552 295.727 444.942 292.08 444.942 292.08C444.942 292.08 438.363 307.233 425.777 306.438C415.339 305.775 408.008 294.476 407.352 292.08Z" fill="#251333"/>
<path d="M377.469 315.779C377.5 315.775 377.517 315.775 377.517 315.775C377.517 315.775 377.494 315.944 377.469 315.779Z" fill="#A55B71"/>
<path d="M384.839 255.634C380.555 284.084 377.79 287.748 377.516 302.676C377.323 313.24 377.403 315.412 377.469 315.779C376.55 315.902 362.422 317.951 354.059 332.254C346.204 345.683 333.497 348.197 329.852 341.901C330.945 342.379 332.106 342.818 333.321 343.207C339.244 345.096 344.424 341.069 354.297 327.97C364.166 314.871 373.873 312.23 373.873 312.23C373.79 296.866 380.29 268.906 380.29 256.69C380.29 244.475 379.548 233.522 383.252 221.306C385.175 214.947 389.045 212.34 393.762 210.582C387.877 217.681 381.22 231.414 384.839 255.634Z" fill="#FCFF00"/>
<path d="M464.124 255.634C468.408 284.084 471.173 287.748 471.446 302.676C471.64 313.24 471.56 315.412 471.493 315.779C472.412 315.902 486.541 317.951 494.903 332.254C502.758 345.683 515.465 348.197 519.111 341.901C518.018 342.379 516.856 342.818 515.642 343.207C509.719 345.096 504.539 341.069 494.666 327.97C484.796 314.871 475.09 312.23 475.09 312.23C475.172 296.866 468.673 268.906 468.673 256.69C468.673 244.475 469.415 233.522 465.711 221.306C463.787 214.947 459.918 212.34 455.201 210.582C461.085 217.681 467.743 231.414 464.124 255.634Z" fill="#FCFF00"/>
<path d="M447.559 208.871C443.311 209.894 437.098 210.059 434.741 203.378C431.062 192.946 433.254 180.117 433.309 179.8C433.21 185.957 433.626 194.078 435.978 199.702C437.096 202.377 438.65 204.49 440.791 205.563C443.038 206.687 445.312 207.49 447.528 208.183C447.539 208.407 447.548 208.635 447.559 208.871Z" fill="#FCFF00"/>
<path d="M414.721 203.378C412.262 210.35 405.61 209.869 401.368 208.736C401.376 208.546 401.384 208.36 401.393 208.183C403.609 207.49 405.883 206.687 408.13 205.563C412.689 203.281 414.583 196.284 415.276 189.181C415.565 186.223 415.645 183.248 415.621 180.586L416.153 179.796C416.153 179.796 418.447 192.815 414.721 203.378Z" fill="#FCFF00"/>
<path d="M439.856 150.873C440.899 146.381 443.143 135.581 442.93 126.475C440.537 119.009 439.881 121.125 440.629 115.772C441.379 110.418 438.161 109.852 435.073 112.248C435.1 112.184 435.128 112.121 435.156 112.062C438.79 103.941 437.286 109.772 437.286 109.772C438.376 109.239 439.892 109.227 441.871 110.777C446.54 114.432 446.242 141.213 439.856 150.873Z" fill="#FCFF00"/>
<path d="M435.073 112.247C435.073 112.247 425.598 99.7145 413.931 105.064C405.174 109.082 406.397 136.032 407.55 149.224C407.197 148.848 406.791 148.519 406.341 148.324C401.685 131.253 404.718 117.081 404.95 116.067C404.953 116.046 404.956 116.025 404.961 116.004C405.662 112.306 406.893 108.846 408.858 105.909C417.632 92.8144 433.428 101.126 435.073 112.247Z" fill="#FCFF00"/>
<path d="M437.286 109.772L435.073 112.248C435.1 112.184 435.128 112.121 435.156 112.062C438.791 103.941 437.286 109.772 437.286 109.772Z" fill="#FCFF00"/>
<path d="M397.532 413.675C397.303 415.543 397.176 417.554 397.179 419.713C376.785 411.097 357.225 402.27 350.038 397.022C343.105 391.96 334.649 385.208 328.27 377.978C328.27 377.978 322.019 371.184 320.186 361.567C319.551 358.233 321.563 356.547 324.464 355.765C329.302 362.889 338.659 375.392 350.563 385.073C360.369 393.046 381.06 404.802 397.532 413.675Z" fill="#FCFF00"/>
<path d="M342.511 405.727L278.102 466.003L258.644 505.299L209.795 540.155L187.439 530.014L125.343 567.409L102.99 597.833L73.836 616.171H26.8916L309.306 425.181L313.325 422.464C322.907 415.982 332.65 410.404 342.511 405.727Z" fill="#FCFF00"/>
<path d="M531.815 382.626C529.03 391.69 522.169 396.925 522.169 396.925C515.137 402.558 506.098 407.223 498.737 410.582C491.108 414.064 470.889 418.15 449.872 421.826C450.068 419.95 450.15 418.163 450.145 416.464C469.799 412.348 501.588 404.831 514.505 396.951C523.613 391.394 528.037 383.742 530.17 377.205C531.738 378.557 532.522 380.323 531.815 382.626Z" fill="#872983"/>
<path d="M353.322 412.115L247.063 494.089L243.751 501.834L250.726 510.949L353.322 412.115Z" fill="#FCFF00"/>
<path d="M205.241 526.849L127.413 580.086L209.795 528.751" fill="#FCFF00"/>
<path d="M377.469 569.725L380.48 616.171H243.958L358.801 481.836L299.48 585.203L336.597 595.078L391.286 468.965L361.806 564.655L377.469 569.725Z" fill="#220C44"/>
<path d="M426.147 484.372L460.346 616.172H441.658L426.147 484.372Z" fill="#220C44"/>
<path d="M466.481 484.372L546.347 616.172H521.005L466.481 484.372Z" fill="#220C44"/>
<path d="M624.098 616.172H587.065L536.916 549.443V526.845L502.549 474.23L624.098 616.172Z" fill="#220C44"/>
<path d="M155.363 500.019L-3.6145 507.244V500.019H155.363Z" fill="#E5889A"/>
<path d="M88.9137 468.965L-3.6145 473.169V468.965H88.9137Z" fill="#E5889A"/>
<path d="M190.337 523.892L-3.6145 532.706V523.892H190.337Z" fill="#E5889A"/>
<path d="M67.7999 553.694L-3.6145 556.939V553.694H67.7999Z" fill="#E5889A"/>
<path d="M611.608 119.456C611.608 119.456 549.738 174.886 473.057 181.173C473.057 181.173 484.707 179.314 495.568 172.929C495.576 172.925 495.587 172.917 495.598 172.913C501.19 169.621 506.572 165.129 510.041 159.074C520.253 141.247 527.429 135.906 536.813 142.591C540.953 119.275 547.853 115.586 563.585 122.08C567.449 103.64 572.141 88.6738 587.596 97.2135C599.059 103.543 607.181 103.29 610.272 109.729C611.354 111.969 611.823 115.028 611.608 119.456Z" fill="url(#paint2_linear_137_62)"/>
<path d="M610.272 109.729C603.447 106.615 590.759 102.225 583.732 108.588C573.797 117.584 568.451 132.276 568.451 132.276C568.451 132.276 547.853 122.837 539.297 151.899C534.053 150.12 526.601 145.21 518.597 155.905C514.474 161.415 505.299 167.893 495.598 172.913C501.19 169.621 506.572 165.129 510.041 159.074C520.253 141.247 527.429 135.906 536.813 142.591C540.953 119.275 547.853 115.586 563.585 122.08C567.449 103.64 572.141 88.6738 587.596 97.2135C599.059 103.543 607.181 103.29 610.272 109.729Z" fill="#FFDDCC"/>
<path d="M657.772 208.519C657.772 208.519 595.902 263.949 519.222 270.236C519.222 270.236 530.872 268.377 541.732 261.992C541.74 261.988 541.751 261.98 541.762 261.975C547.354 258.684 552.736 254.192 556.205 248.137C566.417 230.31 573.593 224.969 582.977 231.653C587.117 208.337 594.017 204.648 609.749 211.143C613.613 192.703 618.305 177.737 633.761 186.276C645.223 192.606 653.345 192.352 656.437 198.792C657.519 201.031 657.988 204.091 657.772 208.519Z" fill="url(#paint3_linear_137_62)"/>
<path d="M656.437 198.792C649.611 195.678 636.924 191.288 629.897 197.651C619.961 206.647 614.615 221.339 614.615 221.339C614.615 221.339 594.017 211.899 585.461 240.962C580.217 239.183 572.765 234.273 564.761 244.968C560.638 250.478 551.464 256.955 541.762 261.975C547.354 258.684 552.736 254.192 556.205 248.137C566.417 230.31 573.593 224.969 582.977 231.653C587.117 208.337 594.017 204.648 609.749 211.143C613.613 192.703 618.305 177.737 633.761 186.276C645.223 192.606 653.346 192.352 656.437 198.792Z" fill="#FFDDCC"/>
<path d="M220.66 105.389C220.66 105.389 283.324 159.026 360.157 163.679C360.157 163.679 348.472 162.077 337.517 155.975C337.508 155.971 337.497 155.963 337.486 155.959C331.846 152.813 326.399 148.474 322.846 142.548C312.388 125.098 305.134 119.955 295.831 126.769C291.377 103.757 284.422 100.245 268.762 107.002C264.65 88.8145 259.754 74.085 244.398 82.8619C233.01 89.3676 224.876 89.2834 221.868 95.7259C220.815 97.9666 220.386 101.007 220.66 105.389Z" fill="url(#paint4_linear_137_62)"/>
<path d="M221.863 95.6076C228.655 92.3764 241.298 87.7567 248.415 93.9172C258.478 102.626 264.022 117.079 264.022 117.079C264.022 117.079 284.516 107.286 293.461 135.918C298.687 134.044 306.082 129.019 314.233 139.453C318.433 144.828 327.701 151.057 337.478 155.829C331.837 152.684 326.391 148.344 322.839 142.414C312.384 124.956 305.131 119.813 295.825 126.637C291.376 103.61 284.421 100.098 268.759 106.868C264.65 88.6687 259.758 73.9302 244.398 82.7219C233.007 89.2385 224.873 89.1584 221.863 95.6076Z" fill="#FFDDCC"/>
<path d="M177.323 218.986C177.323 218.986 242.812 268.343 319.946 268.894C319.946 268.894 308.169 267.932 296.89 262.517C296.881 262.514 296.869 262.506 296.858 262.503C291.05 259.711 285.375 255.738 281.512 250.108C270.142 233.532 262.617 228.864 253.659 236.037C248.01 213.689 240.867 210.606 225.545 218.054C220.488 200.423 214.826 186.225 199.912 195.64C188.852 202.619 180.708 202.962 178.031 209.441C177.093 211.694 176.818 214.7 177.323 218.986Z" fill="url(#paint5_linear_137_62)"/>
<path d="M178.032 209.083C184.662 205.558 197.076 200.368 204.527 206.056C215.063 214.096 221.377 228.013 221.377 228.013C221.377 228.013 241.38 217.336 251.847 245.012C256.981 242.901 264.119 237.583 272.832 247.417C277.321 252.483 286.929 258.127 296.97 262.313C291.157 259.513 285.475 255.528 281.605 249.884C270.215 233.266 262.682 228.585 253.725 235.77C248.054 213.37 240.905 210.277 225.581 217.736C220.506 200.063 214.829 185.831 199.915 195.261C188.854 202.251 180.708 202.59 178.032 209.083Z" fill="#FFDDCC"/>
<path d="M389.95 363.84C381.805 370.339 370.942 364.428 364.362 355.765C360.65 350.881 356.595 347.982 353.546 346.326C359.814 347.83 375.344 355.833 389.95 363.84Z" fill="#FCFF00"/>
</g>
<rect width="597.386" height="600" fill="#101010" fill-opacity="0.45"/>
<defs>
<linearGradient id="paint0_linear_137_62" x1="319.302" y1="426.031" x2="319.302" y2="164.844" gradientUnits="userSpaceOnUse">
<stop stop-color="#FCCF31"/>
<stop offset="1" stop-color="#F55555"/>
</linearGradient>
<linearGradient id="paint1_linear_137_62" x1="319.303" y1="599.526" x2="319.303" y2="436.57" gradientUnits="userSpaceOnUse">
<stop stop-color="#1C0045"/>
<stop offset="1" stop-color="#F55555"/>
</linearGradient>
<linearGradient id="paint2_linear_137_62" x1="473.058" y1="137.963" x2="611.659" y2="137.963" gradientUnits="userSpaceOnUse">
<stop stop-color="#FCCF31"/>
<stop offset="1" stop-color="#F55555"/>
</linearGradient>
<linearGradient id="paint3_linear_137_62" x1="519.221" y1="227.024" x2="657.823" y2="227.024" gradientUnits="userSpaceOnUse">
<stop stop-color="#FCCF31"/>
<stop offset="1" stop-color="#F55555"/>
</linearGradient>
<linearGradient id="paint4_linear_137_62" x1="359.582" y1="120.873" x2="220.841" y2="122.735" gradientUnits="userSpaceOnUse">
<stop stop-color="#FCCF31"/>
<stop offset="1" stop-color="#F55555"/>
</linearGradient>
<linearGradient id="paint5_linear_137_62" x1="317.153" y1="226.92" x2="178.411" y2="236.149" gradientUnits="userSpaceOnUse">
<stop stop-color="#FCCF31"/>
<stop offset="1" stop-color="#F55555"/>
</linearGradient>
</defs>
</svg>
